<?xml version="1.0" encoding="UTF-8"?>
<svg id="Camada_2" data-name="Camada 2" xmlns="http://www.w3.org/2000/svg" viewBox="0 0 553.43 459.66">
  <defs>
    <style>
      .cls-1 {
        fill: #fff;
      }

      .cls-2 {
        fill: #0c0c0c;
      }

      .cls-3 {
        fill: #f36e21;
      }
    </style>
  </defs>
  <g id="Camada_1-2" data-name="Camada 1">
    <g>
      <g>
        <path class="cls-2" d="m66.38,459.66c-13.99,0-25.96-2.4-35.92-7.18-9.96-4.79-17.53-12.5-22.7-23.13-5.17-10.63-7.76-24.57-7.76-41.81v-70.98c0-13.03,1.44-24.14,4.31-33.33,2.87-9.19,7.19-16.62,12.93-22.27,5.75-5.65,12.79-9.82,21.12-12.5,8.33-2.68,17.67-4.02,28.02-4.02,14.17,0,26.1,2.59,35.77,7.76,9.67,5.17,16.9,13.27,21.69,24.28,4.79,11.02,7.08,25.62,6.9,43.82h-43.96c0-9.38-.62-16.9-1.87-22.56-1.25-5.65-3.35-9.77-6.32-12.35-2.97-2.59-7.23-3.88-12.79-3.88-4.6,0-8.43.91-11.49,2.73-3.07,1.82-5.42,4.6-7.04,8.33-1.63,3.73-2.44,8.86-2.44,15.37v88.21c0,4.98.53,9.2,1.58,12.64,1.05,3.45,2.49,6.18,4.31,8.19,1.82,2.01,3.97,3.45,6.47,4.31,2.49.86,5.36,1.29,8.62,1.29,5.55,0,9.82-1.29,12.79-3.88,2.97-2.59,5.08-6.75,6.32-12.5,1.24-5.75,1.87-13.22,1.87-22.42h43.96c.19,13.79-1.1,25.48-3.88,35.06-2.78,9.58-6.85,17.38-12.21,23.42-5.37,6.03-12.12,10.44-20.26,13.22-8.14,2.78-17.49,4.17-28.02,4.17Z"/>
        <path class="cls-2" d="m151.43,456.79v-209.48h100.86v37.36h-55.75v47.12h45.69v36.21h-45.69v51.43h57.47v37.36h-102.58Z"/>
        <path class="cls-2" d="m336.77,459.66c-13.79,0-25.67-2.4-35.63-7.18-9.96-4.79-17.53-12.5-22.7-23.13-5.17-10.63-7.76-24.57-7.76-41.81v-70.98c0-13.03,1.44-24.14,4.31-33.33,2.88-9.19,7.19-16.62,12.93-22.27,5.75-5.65,12.74-9.82,20.98-12.5,8.24-2.68,17.53-4.02,27.88-4.02,14.17,0,26.15,2.4,35.92,7.19,9.77,4.79,17.29,12.45,22.56,22.99,5.27,10.54,7.9,24.52,7.9,41.95v70.98c0,13.03-1.49,24.14-4.45,33.33-2.97,9.2-7.33,16.62-13.08,22.27-5.75,5.65-12.69,9.82-20.83,12.5-8.14,2.68-17.48,4.02-28.02,4.02Zm0-37.07c4.6,0,8.43-.81,11.49-2.44,3.06-1.63,5.46-4.35,7.19-8.19,1.72-3.83,2.59-9.09,2.59-15.8v-88.21c0-4.6-.43-8.57-1.29-11.93-.86-3.35-2.21-6.13-4.02-8.33-1.82-2.2-4.07-3.78-6.75-4.74-2.68-.96-5.75-1.44-9.19-1.44-4.79,0-8.72.91-11.78,2.73-3.07,1.82-5.41,4.6-7.04,8.33-1.63,3.73-2.44,8.86-2.44,15.37v88.21c0,4.98.52,9.2,1.58,12.64,1.05,3.45,2.49,6.18,4.31,8.19,1.82,2.01,4.02,3.45,6.61,4.31s5.5,1.29,8.77,1.29Z"/>
        <path class="cls-2" d="m424.69,456.79v-209.48h52.59l29.02,105.75,2.87,14.65h2.01v-120.4h42.24v209.48h-53.16l-29.6-106.89-2.01-11.21h-1.72v118.1h-42.24Z"/>
      </g>
      <polygon class="cls-3" points="453.16 49.47 372.69 95.94 367.47 98.95 367.47 197.89 310.35 197.89 308.47 201.16 281.78 247.37 196.09 197.89 196.09 98.95 138.97 98.95 110.4 49.47 196.09 0 276.56 46.46 281.78 49.47 284.39 44.96 310.35 0 424.6 0 453.16 49.47"/>
      <polygon class="cls-1" points="372.69 95.94 367.47 98.95 367.47 104.97 289.29 59.84 281.78 55.5 278.15 57.59 196.09 104.97 196.09 98.95 185.65 98.95 276.56 46.46 281.78 49.47 284.39 44.96 372.69 95.94"/>
      <polygon class="cls-1" points="318.44 197.89 310.35 197.89 308.47 201.16 278.15 57.59 276.67 50.56 281.78 49.47 286.88 48.39 289.29 59.84 318.44 197.89"/>
    </g>
  </g>
</svg>