<?xml version="1.0" encoding="UTF-8"?>
<svg id="Camada_2" data-name="Camada 2" xmlns="http://www.w3.org/2000/svg" viewBox="0 0 599.4 614.54">
  <defs>
    <style>
      .cls-1 {
        fill: #fff;
      }

      .cls-2 {
        fill: #f36e21;
      }
    </style>
  </defs>
  <g id="Camada_2-2" data-name="Camada 2">
    <g>
      <g>
        <path d="m358.66,307.85c-6.91,0-12.83-1.18-17.75-3.55-4.92-2.37-8.66-6.18-11.22-11.43-2.56-5.25-3.83-12.14-3.83-20.67v-35.08c0-6.44.71-11.93,2.13-16.48,1.42-4.54,3.55-8.21,6.39-11.01,2.84-2.79,6.32-4.85,10.44-6.18,4.12-1.33,8.73-1.99,13.85-1.99,7.01,0,12.9,1.28,17.68,3.83,4.78,2.56,8.36,6.56,10.72,12,2.37,5.45,3.5,12.67,3.41,21.66h-21.73c0-4.64-.31-8.36-.92-11.15-.62-2.79-1.66-4.83-3.12-6.11-1.47-1.28-3.58-1.92-6.32-1.92-2.27,0-4.17.45-5.68,1.35-1.52.9-2.68,2.27-3.48,4.12-.81,1.85-1.21,4.38-1.21,7.6v43.6c0,2.46.26,4.54.78,6.25.52,1.71,1.23,3.05,2.13,4.05.9,1,1.96,1.71,3.2,2.13,1.23.43,2.65.64,4.26.64,2.75,0,4.85-.64,6.32-1.92,1.47-1.28,2.51-3.34,3.12-6.18.61-2.84.92-6.53.92-11.08h21.73c.09,6.82-.55,12.59-1.92,17.33-1.37,4.74-3.39,8.59-6.04,11.58-2.65,2.98-5.99,5.16-10.01,6.53-4.03,1.37-8.64,2.06-13.85,2.06Z"/>
        <path d="m400.7,306.43v-103.54h49.85v18.46h-27.55v23.29h22.58v17.9h-22.58v25.42h28.41v18.46h-50.71Z"/>
        <path d="m492.31,307.85c-6.82,0-12.69-1.18-17.61-3.55-4.92-2.37-8.66-6.18-11.22-11.43-2.56-5.25-3.83-12.14-3.83-20.67v-35.08c0-6.44.71-11.93,2.13-16.48,1.42-4.54,3.55-8.21,6.39-11.01,2.84-2.79,6.3-4.85,10.37-6.18,4.07-1.33,8.66-1.99,13.78-1.99,7.01,0,12.92,1.18,17.75,3.55,4.83,2.37,8.54,6.16,11.15,11.36,2.6,5.21,3.91,12.12,3.91,20.74v35.08c0,6.44-.73,11.93-2.2,16.48-1.47,4.54-3.62,8.22-6.46,11.01-2.84,2.79-6.27,4.85-10.3,6.18-4.03,1.33-8.64,1.99-13.85,1.99Zm0-18.32c2.27,0,4.17-.4,5.68-1.21,1.51-.8,2.7-2.15,3.55-4.05.85-1.89,1.28-4.5,1.28-7.81v-43.6c0-2.27-.21-4.24-.64-5.89-.43-1.66-1.09-3.03-1.99-4.12-.9-1.09-2.01-1.87-3.34-2.34-1.33-.47-2.84-.71-4.54-.71-2.37,0-4.31.45-5.82,1.35-1.52.9-2.68,2.27-3.48,4.12-.81,1.85-1.21,4.38-1.21,7.6v43.6c0,2.46.26,4.54.78,6.25.52,1.71,1.23,3.05,2.13,4.05.9,1,1.99,1.71,3.27,2.13s2.72.64,4.33.64Z"/>
        <path d="m535.77,306.43v-103.54h25.99l14.35,52.27,1.42,7.24h.99v-59.51h20.88v103.54h-26.28l-14.63-52.84-.99-5.54h-.85v58.38h-20.88Z"/>
      </g>
      <g id="t00012f">
        <path d="m510.08,513.74h-33.61v-55.9l-48.41-27.95,16.23-28.1-16.23-28.1,49.41-28.53,47.68,27.53,15.8-27.37h33.61v57.05l-47.68,27.53,15.8,27.37-32.61,56.48Zm-31.61-2h30.45l31.45-54.48-16.23-28.1,48.41-27.95v-53.9h-30.45l-16.23,28.1-48.41-27.95-46.68,26.95,15.8,27.37-15.8,27.37,47.68,27.53v55.05Z"/>
      </g>
      <g id="t00012f-2" data-name="t00012f">
        <path d="m216.15,141.18l-16.21-28.11-32.45-.02.03-55.9-48.39-27.98L135.94.08l65.21.04,15.79,27.38L264.64,0l49.39,28.55-16.82,29.1-31.61-.02-.03,55.05-49.42,28.5Zm-46.66-30.13l31.61.02,15.79,27.38,46.69-26.92.03-55.9,32.45.02,15.24-26.36-46.66-26.97-48.42,27.92-16.21-28.11-62.9-.03-15.24,26.36,47.66,27.55-.03,55.05Z"/>
      </g>
      <g id="t00012f-3" data-name="t00012f">
        <path d="m369.24,176.28l-47.71-27.48-15.77,27.39-65.21.07-16.83-29.09,48.38-28-.06-55.9,32.45-.03,16.2-28.12,49.44,28.47.06,55.05,31.61-.03,16.83,29.09-49.38,28.58Zm-142.79-28.38l15.25,26.36,62.9-.07,16.2-28.12,48.44,27.9,46.65-27-15.25-26.36-32.45.03-.06-55.9-46.71-26.9-15.77,27.39-31.61.03.06,55.05-47.65,27.58Z"/>
      </g>
      <g id="t00012f-4" data-name="t00012f">
        <path d="m113.66,385.51l-49.42-28.51v-55.05s-31.62,0-31.62,0L0,245.48l16.8-29.11,48.42,27.94,48.4-27.96,16.23,28.1h32.45s.01,57.05.01,57.05l-47.67,27.54,15.81,27.37-16.8,29.11Zm-47.42-29.67l46.68,26.94,15.22-26.38-16.23-28.1,48.4-27.96v-53.9s-31.62,0-31.62,0l-15.81-27.37-47.67,27.54-47.68-27.52-15.22,26.38,31.46,54.47h32.45s.01,55.89.01,55.89Z"/>
      </g>
      <g id="t00012f-5" data-name="t00012f">
        <path d="m208.46,204.85l-48.31-28.11-48.5,27.78-16.13-28.16-32.45-.11.19-57.05,47.77-27.36-15.71-27.43,16.9-29.05,49.31,28.7-.19,55.05,31.61.11,32.41,56.59-16.9,29.05Zm-48.31-30.42l47.58,27.69,15.32-26.32-31.27-54.58-32.45-.11.19-55.9-46.59-27.11-15.32,26.32,16.13,28.16-48.5,27.78-.18,53.9,31.61.11,15.71,27.43,47.77-27.36Z"/>
      </g>
      <g id="t00005f">
        <path d="m206.15,475.04h-33.61v-55.9l-48.41-27.95,16.23-28.1-16.23-28.1,49.41-28.53,47.68,27.53,15.8-27.37h33.61v57.05l-47.68,27.53,15.8,27.37-32.61,56.48Zm-31.61-2h30.45l31.45-54.48-16.23-28.1,48.41-27.95v-53.9h-30.45l-16.23,28.1-48.41-27.95-46.68,26.95,15.8,27.37-15.8,27.37,47.68,27.53v55.05Z"/>
      </g>
      <g id="t00005f-2" data-name="t00005f">
        <path d="m336.68,614.54l-49.41-28.53v-55.05h-31.61l-32.61-56.48,16.8-29.1,48.41,27.95,48.41-27.95,16.23,28.1h32.45v57.05l-47.68,27.53,15.8,27.37-16.8,29.1Zm-47.41-29.68l46.68,26.95,15.23-26.37-16.23-28.1,48.41-27.95v-53.9h-31.61l-15.8-27.37-47.68,27.53-47.68-27.53-15.23,26.37,31.45,54.48h32.45v55.9Z"/>
      </g>
      <polygon class="cls-1" points="218.95 208.34 213.33 209.42 160.9 239.69 168.4 244.02 231.65 298.78 238.71 295.9 269.51 237.53 218.95 208.34"/>
      <g>
        <polygon class="cls-2" points="213.33 209.42 160.9 239.69 135.95 239.69 119.72 211.59 168.4 183.48 213.33 209.42"/>
        <polygon class="cls-2" points="214.48 217.42 231.65 298.78 217.08 324 168.4 295.9 168.4 244.02 214.48 217.42"/>
        <polygon class="cls-2" points="222.48 219.04 265.76 244.03 265.76 295.9 238.71 295.9 222.48 219.04"/>
        <polygon class="cls-2" points="314.44 211.59 269.51 237.53 218.95 208.34 233.31 183.48 298.21 183.48 314.44 211.59"/>
      </g>
    </g>
  </g>
</svg>