<?xml version="1.0" encoding="UTF-8"?>
<svg id="Camada_2" data-name="Camada 2" xmlns="http://www.w3.org/2000/svg" xmlns:xlink="http://www.w3.org/1999/xlink" viewBox="0 0 1782.69 1782.69">
  <defs>
    <style>
      .cls-1 {
        stroke-miterlimit: 40;
        stroke-width: 1px;
      }

      .cls-1, .cls-2, .cls-3, .cls-4, .cls-5, .cls-6 {
        fill: none;
      }

      .cls-1, .cls-2, .cls-3, .cls-4, .cls-6 {
        stroke: #f9f9f9;
      }

      .cls-2 {
        stroke-miterlimit: 40;
        stroke-width: 1px;
      }

      .cls-3 {
        stroke-width: 1px;
      }

      .cls-3, .cls-6 {
        stroke-miterlimit: 40;
      }

      .cls-4 {
        stroke-miterlimit: 40;
        stroke-width: 1px;
      }

      .cls-7 {
        clip-path: url(#clippath);
      }

      .cls-6 {
        stroke-width: 1px;
      }
    </style>
    <clipPath id="clippath">
      <rect class="cls-5" width="1782.69" height="1782.69"/>
    </clipPath>
  </defs>
  <g id="Camada_1-2" data-name="Camada 1">
    <g class="cls-7">
      <g id="t00000f">
        <g id="t00001f">
          <g id="t00013f">
            <g id="t00003f">
              <g id="t00004f">
                <polyline class="cls-3" points="23.72 1426.07 79.87 1393.65 61.15 1361.23 79.87 1328.81 23.72 1296.39 23.72 1231.55 -13.72 1231.55"/>
              </g>
            </g>
            <g id="t00008f">
              <g id="t00009f">
                <polyline class="cls-2" points="23.72 1555.75 79.87 1523.33 61.15 1490.91 23.72 1490.91 23.72 1426.07"/>
              </g>
            </g>
            <g id="t00003f-2" data-name="t00003f">
              <g id="t00004f-2" data-name="t00004f">
                <polyline class="cls-3" points="23.72 1815.11 23.72 1750.27 -13.72 1750.27"/>
              </g>
              <g id="t00004f-3" data-name="t00004f">
                <polyline class="cls-3" points="-13.72 1620.59 23.72 1620.59 23.72 1685.43 79.87 1717.85 98.59 1685.43 79.87 1653.01 136.02 1620.59 136.02 1555.75 98.59 1555.75 79.87 1523.33 23.72 1555.75"/>
              </g>
              <g id="t00005f">
                <polyline class="cls-6" points="-13.72 1620.59 23.72 1620.59 23.72 1685.43 79.87 1717.85 61.15 1750.27 -13.72 1750.27"/>
              </g>
            </g>
            <g id="t00010f">
              <g id="t00011f">
                <polygon class="cls-2" points="136.02 1750.27 136.02 1815.11 173.46 1815.11 210.89 1750.27 192.17 1717.85 248.33 1685.43 248.33 1620.59 210.89 1620.59 192.17 1653.01 136.02 1620.59 79.87 1653.01 98.59 1685.43 79.87 1717.85 136.02 1750.27"/>
              </g>
              <g id="t00011f-2" data-name="t00011f">
                <polyline class="cls-6" points="-13.72 1879.95 61.15 1879.95 79.87 1847.53 136.02 1879.95 192.17 1847.53 173.46 1815.11 136.02 1815.11 136.02 1750.27 79.87 1717.85 61.15 1750.27 23.72 1750.27 23.72 1815.11"/>
              </g>
            </g>
          </g>
          <g id="t00014f">
            <g id="t00010f-2" data-name="t00010f">
              <g id="t00011f-3" data-name="t00011f">
                <polyline class="cls-2" points="23.72 907.36 23.72 842.52 -13.72 842.52"/>
              </g>
            </g>
          </g>
        </g>
        <g id="t00001f-2" data-name="t00001f">
          <g id="t00002f">
            <g id="t00003f-3" data-name="t00003f">
              <g id="t00004f-4" data-name="t00004f">
                <polygon class="cls-2" points="809.85 1879.95 866 1912.37 884.72 1879.95 847.29 1815.11 809.85 1815.11 809.85 1750.27 753.7 1717.85 734.98 1750.27 753.7 1782.69 697.55 1815.11 697.55 1879.95 734.98 1879.95 753.7 1912.37 809.85 1879.95"/>
              </g>
            </g>
            <g id="t00008f-2" data-name="t00008f">
              <g id="t00009f-2" data-name="t00009f">
                <polygon class="cls-2" points="697.55 1815.11 753.7 1782.69 734.98 1750.27 660.11 1750.27 641.39 1782.69 585.24 1750.27 529.09 1782.69 547.81 1815.11 585.24 1815.11 585.24 1879.95 641.39 1912.37 660.11 1879.95 697.55 1879.95 697.55 1815.11"/>
              </g>
            </g>
            <g id="t00010f-3" data-name="t00010f">
              <g id="t00011f-4" data-name="t00011f">
                <polygon class="cls-1" points="922.16 1815.11 978.31 1847.53 997.03 1815.11 959.59 1750.27 922.16 1750.27 922.16 1685.43 866 1653.01 847.29 1685.43 866 1717.85 809.85 1750.27 809.85 1815.11 847.29 1815.11 866 1847.53 922.16 1815.11"/>
              </g>
            </g>
          </g>
          <g id="t00002f-2" data-name="t00002f">
            <g id="t00003f-4" data-name="t00003f">
              <g id="t00004f-5" data-name="t00004f">
                <polygon class="cls-2" points="1371.38 1296.39 1427.53 1328.81 1446.25 1296.39 1408.81 1231.55 1371.38 1231.55 1371.38 1166.72 1315.22 1134.3 1296.51 1166.72 1315.22 1199.13 1259.07 1231.55 1259.07 1296.39 1296.51 1296.39 1315.22 1328.81 1371.38 1296.39"/>
              </g>
              <g id="t00004f-6" data-name="t00004f">
                <polygon class="cls-2" points="1259.07 1490.91 1315.22 1523.33 1333.94 1490.91 1296.51 1426.07 1259.07 1426.07 1259.07 1361.23 1202.92 1328.81 1184.2 1361.23 1202.92 1393.65 1146.77 1426.07 1146.77 1490.91 1184.2 1490.91 1202.92 1523.33 1259.07 1490.91"/>
              </g>
              <g id="t00004f-7" data-name="t00004f">
                <polygon class="cls-2" points="1371.38 1426.07 1315.22 1458.49 1333.94 1490.91 1408.81 1490.91 1427.53 1458.49 1483.68 1490.91 1539.83 1458.49 1521.12 1426.07 1483.68 1426.07 1483.68 1361.23 1427.53 1328.81 1408.81 1361.23 1371.38 1361.23 1371.38 1426.07"/>
              </g>
              <g id="t00005f-2" data-name="t00005f">
                <polygon class="cls-2" points="1259.07 1361.23 1202.92 1328.81 1221.64 1296.39 1296.51 1296.39 1315.22 1328.81 1371.38 1296.39 1427.53 1328.81 1408.81 1361.23 1371.38 1361.23 1371.38 1426.07 1315.22 1458.49 1296.51 1426.07 1259.07 1426.07 1259.07 1361.23"/>
              </g>
            </g>
            <g id="t00003f-5" data-name="t00003f">
              <g id="t00004f-8" data-name="t00004f">
                <polygon class="cls-2" points="1146.77 1555.75 1202.92 1588.17 1221.64 1555.75 1184.2 1490.91 1146.77 1490.91 1146.77 1426.07 1090.61 1393.65 1071.9 1426.07 1090.61 1458.49 1034.46 1490.91 1034.46 1555.75 1071.9 1555.75 1090.61 1588.17 1146.77 1555.75"/>
              </g>
              <g id="t00004f-9" data-name="t00004f">
                <polygon class="cls-2" points="1034.46 1750.27 1090.61 1782.69 1109.33 1750.27 1071.9 1685.43 1034.46 1685.43 1034.46 1620.59 978.31 1588.17 959.59 1620.59 978.31 1653.01 922.16 1685.43 922.16 1750.27 959.59 1750.27 978.31 1782.69 1034.46 1750.27"/>
              </g>
              <g id="t00004f-10" data-name="t00004f">
                <polygon class="cls-2" points="1146.77 1685.43 1090.61 1717.85 1109.33 1750.27 1184.2 1750.27 1202.92 1717.85 1259.07 1750.27 1315.22 1717.85 1296.51 1685.43 1259.07 1685.43 1259.07 1620.59 1202.92 1588.17 1184.2 1620.59 1146.77 1620.59 1146.77 1685.43"/>
              </g>
              <g id="t00005f-3" data-name="t00005f">
                <polygon class="cls-2" points="1034.46 1620.59 978.31 1588.17 997.03 1555.75 1071.9 1555.75 1090.61 1588.17 1146.77 1555.75 1202.92 1588.17 1184.2 1620.59 1146.77 1620.59 1146.77 1685.43 1090.61 1717.85 1071.9 1685.43 1034.46 1685.43 1034.46 1620.59"/>
              </g>
            </g>
            <g id="t00003f-6" data-name="t00003f">
              <g id="t00004f-11" data-name="t00004f">
                <polygon class="cls-6" points="1483.68 1750.27 1427.53 1782.69 1446.25 1815.11 1521.12 1815.11 1539.83 1782.69 1595.99 1815.11 1652.14 1782.69 1633.42 1750.27 1595.99 1750.27 1595.99 1685.43 1539.83 1653.01 1521.12 1685.43 1483.68 1685.43 1483.68 1750.27"/>
              </g>
              <g id="t00004f-12" data-name="t00004f">
                <polygon class="cls-6" points="1371.38 1555.75 1315.22 1588.17 1333.94 1620.59 1408.81 1620.59 1427.53 1588.17 1483.68 1620.59 1539.83 1588.17 1521.12 1555.75 1483.68 1555.75 1483.68 1490.91 1427.53 1458.49 1408.81 1490.91 1371.38 1490.91 1371.38 1555.75"/>
              </g>
              <g id="t00004f-13" data-name="t00004f">
                <polygon class="cls-3" points="1371.38 1685.43 1371.38 1620.59 1333.94 1620.59 1296.51 1685.43 1315.22 1717.85 1259.07 1750.27 1259.07 1815.11 1296.51 1815.11 1315.22 1782.69 1371.38 1815.11 1427.53 1782.69 1408.81 1750.27 1427.53 1717.85 1371.38 1685.43"/>
              </g>
              <g id="t00005f-4" data-name="t00005f">
                <polygon class="cls-3" points="1483.68 1620.59 1539.83 1588.17 1558.55 1620.59 1521.12 1685.43 1483.68 1685.43 1483.68 1750.27 1427.53 1782.69 1408.81 1750.27 1427.53 1717.85 1371.38 1685.43 1371.38 1620.59 1408.81 1620.59 1427.53 1588.17 1483.68 1620.59"/>
              </g>
            </g>
            <g id="t00006f">
              <g id="t00007f">
                <polygon class="cls-1" points="1259.07 1620.59 1259.07 1685.43 1296.51 1685.43 1333.94 1620.59 1315.22 1588.17 1371.38 1555.75 1371.38 1490.91 1333.94 1490.91 1315.22 1523.33 1259.07 1490.91 1202.92 1523.33 1221.64 1555.75 1202.92 1588.17 1259.07 1620.59"/>
              </g>
            </g>
            <g id="t00008f-3" data-name="t00008f">
              <g id="t00009f-3" data-name="t00009f">
                <polygon class="cls-2" points="1595.99 1555.75 1652.14 1588.17 1670.86 1555.75 1633.42 1490.91 1595.99 1490.91 1595.99 1426.07 1539.83 1393.65 1521.12 1426.07 1539.83 1458.49 1483.68 1490.91 1483.68 1555.75 1521.12 1555.75 1539.83 1588.17 1595.99 1555.75"/>
              </g>
              <g id="t00009f-4" data-name="t00009f">
                <polygon class="cls-3" points="1595.99 1685.43 1595.99 1750.27 1633.42 1750.27 1670.86 1685.43 1652.14 1653.01 1708.29 1620.59 1708.29 1555.75 1670.86 1555.75 1652.14 1588.17 1595.99 1555.75 1539.83 1588.17 1558.55 1620.59 1539.83 1653.01 1595.99 1685.43"/>
              </g>
            </g>
            <g id="t00010f-4" data-name="t00010f">
              <g id="t00011f-5" data-name="t00011f">
                <polygon class="cls-2" points="1483.68 1231.55 1539.83 1263.97 1558.55 1231.55 1521.12 1166.72 1483.68 1166.72 1483.68 1101.88 1427.53 1069.46 1408.81 1101.88 1427.53 1134.3 1371.38 1166.72 1371.38 1231.55 1408.81 1231.55 1427.53 1263.97 1483.68 1231.55"/>
              </g>
              <g id="t00011f-6" data-name="t00011f">
                <polygon class="cls-3" points="1483.68 1361.23 1483.68 1426.07 1521.12 1426.07 1558.55 1361.23 1539.83 1328.81 1595.99 1296.39 1595.99 1231.55 1558.55 1231.55 1539.83 1263.97 1483.68 1231.55 1427.53 1263.97 1446.25 1296.39 1427.53 1328.81 1483.68 1361.23"/>
              </g>
            </g>
            <g id="t00008f-4" data-name="t00008f">
              <g id="t00009f-5" data-name="t00009f">
                <polygon class="cls-1" points="1146.77 1296.39 1146.77 1231.55 1109.33 1231.55 1071.9 1296.39 1090.61 1328.81 1034.46 1361.23 1034.46 1426.07 1071.9 1426.07 1090.61 1393.65 1146.77 1426.07 1202.92 1393.65 1184.2 1361.23 1202.92 1328.81 1146.77 1296.39"/>
              </g>
              <g id="t00009f-6" data-name="t00009f">
                <polygon class="cls-2" points="1259.07 1231.55 1315.22 1199.13 1296.51 1166.72 1221.64 1166.72 1202.92 1199.13 1146.77 1166.72 1090.61 1199.13 1109.33 1231.55 1146.77 1231.55 1146.77 1296.39 1202.92 1328.81 1221.64 1296.39 1259.07 1296.39 1259.07 1231.55"/>
              </g>
            </g>
            <g id="t00010f-5" data-name="t00010f">
              <g id="t00011f-7" data-name="t00011f">
                <polygon class="cls-1" points="922.16 1555.75 922.16 1490.91 884.72 1490.91 847.29 1555.75 866 1588.17 809.85 1620.59 809.85 1685.43 847.29 1685.43 866 1653.01 922.16 1685.43 978.31 1653.01 959.59 1620.59 978.31 1588.17 922.16 1555.75"/>
              </g>
              <g id="t00011f-8" data-name="t00011f">
                <polygon class="cls-2" points="1034.46 1490.91 1090.61 1458.49 1071.9 1426.07 997.03 1426.07 978.31 1458.49 922.16 1426.07 866 1458.49 884.72 1490.91 922.16 1490.91 922.16 1555.75 978.31 1588.17 997.03 1555.75 1034.46 1555.75 1034.46 1490.91"/>
              </g>
            </g>
            <g id="t00008f-5" data-name="t00008f">
              <g id="t00009f-7" data-name="t00009f">
                <polygon class="cls-2" points="1146.77 1815.11 1202.92 1782.69 1184.2 1750.27 1109.33 1750.27 1090.61 1782.69 1034.46 1750.27 978.31 1782.69 997.03 1815.11 1034.46 1815.11 1034.46 1879.95 1090.61 1912.37 1109.33 1879.95 1146.77 1879.95 1146.77 1815.11"/>
              </g>
              <g id="t00009f-8" data-name="t00009f">
                <polygon class="cls-3" points="1259.07 1879.95 1315.22 1912.37 1333.94 1879.95 1296.51 1815.11 1259.07 1815.11 1259.07 1750.27 1202.92 1717.85 1184.2 1750.27 1202.92 1782.69 1146.77 1815.11 1146.77 1879.95 1184.2 1879.95 1202.92 1912.37 1259.07 1879.95"/>
              </g>
            </g>
            <g id="t00010f-6" data-name="t00010f">
              <g id="t00011f-9" data-name="t00011f">
                <polygon class="cls-2" points="1483.68 1879.95 1427.53 1912.37 1446.25 1944.79 1521.12 1944.79 1539.83 1912.37 1595.99 1944.79 1652.14 1912.37 1633.42 1879.95 1595.99 1879.95 1595.99 1815.11 1539.83 1782.69 1521.12 1815.11 1483.68 1815.11 1483.68 1879.95"/>
              </g>
              <g id="t00011f-10" data-name="t00011f">
                <polygon class="cls-3" points="1371.38 1815.11 1315.22 1782.69 1296.51 1815.11 1333.94 1879.95 1371.38 1879.95 1371.38 1944.79 1427.53 1977.21 1446.25 1944.79 1427.53 1912.37 1483.68 1879.95 1483.68 1815.11 1446.25 1815.11 1427.53 1782.69 1371.38 1815.11"/>
              </g>
            </g>
          </g>
          <g id="t00013f-2" data-name="t00013f">
            <g id="t00010f-7" data-name="t00010f">
              <g id="t00011f-11" data-name="t00011f">
                <polygon class="cls-2" points="922.16 1037.04 978.31 1004.62 959.59 972.2 884.72 972.2 866 1004.62 809.85 972.2 753.7 1004.62 772.42 1037.04 809.85 1037.04 809.85 1101.88 866 1134.3 884.72 1101.88 922.16 1101.88 922.16 1037.04"/>
              </g>
              <g id="t00011f-12" data-name="t00011f">
                <polygon class="cls-3" points="1034.46 1101.88 1090.61 1134.3 1109.33 1101.88 1071.9 1037.04 1034.46 1037.04 1034.46 972.2 978.31 939.78 959.59 972.2 978.31 1004.62 922.16 1037.04 922.16 1101.88 959.59 1101.88 978.31 1134.3 1034.46 1101.88"/>
              </g>
            </g>
            <g id="t00003f-7" data-name="t00003f">
              <g id="t00004f-14" data-name="t00004f">
                <polygon class="cls-6" points="922.16 1166.72 978.31 1134.3 959.59 1101.88 884.72 1101.88 866 1134.3 809.85 1101.88 753.7 1134.3 772.42 1166.72 809.85 1166.72 809.85 1231.55 866 1263.97 884.72 1231.55 922.16 1231.55 922.16 1166.72"/>
              </g>
              <g id="t00004f-15" data-name="t00004f">
                <polygon class="cls-6" points="1034.46 1361.23 1090.61 1328.81 1071.9 1296.39 997.03 1296.39 978.31 1328.81 922.16 1296.39 866 1328.81 884.72 1361.23 922.16 1361.23 922.16 1426.07 978.31 1458.49 997.03 1426.07 1034.46 1426.07 1034.46 1361.23"/>
              </g>
              <g id="t00004f-16" data-name="t00004f">
                <polygon class="cls-3" points="1034.46 1231.55 1034.46 1296.39 1071.9 1296.39 1109.33 1231.55 1090.61 1199.13 1146.77 1166.72 1146.77 1101.88 1109.33 1101.88 1090.61 1134.3 1034.46 1101.88 978.31 1134.3 997.03 1166.72 978.31 1199.13 1034.46 1231.55"/>
              </g>
              <g id="t00005f-5" data-name="t00005f">
                <polygon class="cls-3" points="922.16 1296.39 866 1328.81 847.29 1296.39 884.72 1231.55 922.16 1231.55 922.16 1166.72 978.31 1134.3 997.03 1166.72 978.31 1199.13 1034.46 1231.55 1034.46 1296.39 997.03 1296.39 978.31 1328.81 922.16 1296.39"/>
              </g>
            </g>
            <g id="t00008f-6" data-name="t00008f">
              <g id="t00009f-9" data-name="t00009f">
                <polygon class="cls-2" points="809.85 1361.23 753.7 1328.81 734.98 1361.23 772.42 1426.07 809.85 1426.07 809.85 1490.91 866 1523.33 884.72 1490.91 866 1458.49 922.16 1426.07 922.16 1361.23 884.72 1361.23 866 1328.81 809.85 1361.23"/>
              </g>
              <g id="t00009f-10" data-name="t00009f">
                <polygon class="cls-3" points="809.85 1231.55 809.85 1166.72 772.42 1166.72 734.98 1231.55 753.7 1263.97 697.55 1296.39 697.55 1361.23 734.98 1361.23 753.7 1328.81 809.85 1361.23 866 1328.81 847.29 1296.39 866 1263.97 809.85 1231.55"/>
              </g>
            </g>
            <g id="t00003f-8" data-name="t00003f">
              <g id="t00004f-17" data-name="t00004f">
                <polygon class="cls-3" points="585.24 1490.91 585.24 1426.07 547.81 1426.07 510.37 1490.91 529.09 1523.33 472.94 1555.75 472.94 1620.59 510.37 1620.59 529.09 1588.17 585.24 1620.59 641.39 1588.17 622.68 1555.75 641.39 1523.33 585.24 1490.91"/>
              </g>
              <g id="t00004f-18" data-name="t00004f">
                <polygon class="cls-3" points="809.85 1490.91 809.85 1426.07 772.42 1426.07 734.98 1490.91 753.7 1523.33 697.55 1555.75 697.55 1620.59 734.98 1620.59 753.7 1588.17 809.85 1620.59 866 1588.17 847.29 1555.75 866 1523.33 809.85 1490.91"/>
              </g>
              <g id="t00004f-19" data-name="t00004f">
                <polygon class="cls-3" points="697.55 1426.07 753.7 1458.49 772.42 1426.07 734.98 1361.23 697.55 1361.23 697.55 1296.39 641.39 1263.97 622.68 1296.39 641.39 1328.81 585.24 1361.23 585.24 1426.07 622.68 1426.07 641.39 1458.49 697.55 1426.07"/>
              </g>
              <g id="t00005f-6" data-name="t00005f">
                <polygon class="cls-3" points="697.55 1555.75 697.55 1620.59 660.11 1620.59 622.68 1555.75 641.39 1523.33 585.24 1490.91 585.24 1426.07 622.68 1426.07 641.39 1458.49 697.55 1426.07 753.7 1458.49 734.98 1490.91 753.7 1523.33 697.55 1555.75"/>
              </g>
            </g>
            <g id="t00010f-8" data-name="t00010f">
              <g id="t00011f-13" data-name="t00011f">
                <polygon class="cls-2" points="697.55 1685.43 641.39 1717.85 660.11 1750.27 734.98 1750.27 753.7 1717.85 809.85 1750.27 866 1717.85 847.29 1685.43 809.85 1685.43 809.85 1620.59 753.7 1588.17 734.98 1620.59 697.55 1620.59 697.55 1685.43"/>
              </g>
              <g id="t00011f-14" data-name="t00011f">
                <polygon class="cls-3" points="585.24 1620.59 529.09 1588.17 510.37 1620.59 547.81 1685.43 585.24 1685.43 585.24 1750.27 641.39 1782.69 660.11 1750.27 641.39 1717.85 697.55 1685.43 697.55 1620.59 660.11 1620.59 641.39 1588.17 585.24 1620.59"/>
              </g>
            </g>
          </g>
          <g id="t00014f-2" data-name="t00014f">
            <g id="t00010f-9" data-name="t00010f">
              <g id="t00011f-15" data-name="t00011f">
                <polygon class="cls-2" points="360.63 1620.59 416.78 1588.17 398.07 1555.75 323.2 1555.75 304.48 1588.17 248.33 1555.75 192.18 1588.17 210.89 1620.59 248.33 1620.59 248.33 1685.43 304.48 1717.85 323.2 1685.43 360.63 1685.43 360.63 1620.59"/>
              </g>
              <g id="t00011f-16" data-name="t00011f">
                <polygon class="cls-3" points="472.94 1685.43 529.09 1717.85 547.81 1685.43 510.37 1620.59 472.94 1620.59 472.94 1555.75 416.78 1523.33 398.07 1555.75 416.78 1588.17 360.63 1620.59 360.63 1685.43 398.07 1685.43 416.78 1717.85 472.94 1685.43"/>
              </g>
            </g>
            <g id="t00003f-9" data-name="t00003f">
              <g id="t00004f-20" data-name="t00004f">
                <polygon class="cls-6" points="360.63 1750.27 416.78 1717.85 398.07 1685.43 323.2 1685.43 304.48 1717.85 248.33 1685.43 192.17 1717.85 210.89 1750.27 248.33 1750.27 248.33 1815.11 304.48 1847.53 323.2 1815.11 360.63 1815.11 360.63 1750.27"/>
              </g>
              <g id="t00004f-21" data-name="t00004f">
                <polygon class="cls-3" points="472.94 1815.11 472.94 1879.95 510.37 1879.95 547.81 1815.11 529.09 1782.69 585.24 1750.27 585.24 1685.43 547.81 1685.43 529.09 1717.85 472.94 1685.43 416.78 1717.85 435.5 1750.27 416.78 1782.69 472.94 1815.11"/>
              </g>
              <g id="t00005f-7" data-name="t00005f">
                <polygon class="cls-3" points="360.63 1879.95 304.48 1912.37 285.76 1879.95 323.2 1815.11 360.63 1815.11 360.63 1750.27 416.78 1717.85 435.5 1750.27 416.78 1782.69 472.94 1815.11 472.94 1879.95 435.5 1879.95 416.78 1912.37 360.63 1879.95"/>
              </g>
            </g>
            <g id="t00008f-7" data-name="t00008f">
              <g id="t00009f-11" data-name="t00009f">
                <polygon class="cls-3" points="248.33 1815.11 248.33 1750.27 210.89 1750.27 173.46 1815.11 192.17 1847.53 136.02 1879.95 136.02 1944.79 173.46 1944.79 192.17 1912.37 248.33 1944.79 304.48 1912.37 285.76 1879.95 304.48 1847.53 248.33 1815.11"/>
              </g>
            </g>
          </g>
          <g id="t00013f-3" data-name="t00013f">
            <g id="t00010f-10" data-name="t00010f">
              <g id="t00011f-17" data-name="t00011f">
                <polygon class="cls-2" points="1708.29 1750.27 1708.29 1685.43 1670.86 1685.43 1633.42 1750.27 1652.14 1782.69 1595.99 1815.11 1595.99 1879.95 1633.42 1879.95 1652.14 1847.53 1708.29 1879.95 1764.44 1847.53 1745.73 1815.11 1764.44 1782.69 1708.29 1750.27"/>
              </g>
              <g id="t00011f-18" data-name="t00011f">
                <polyline class="cls-6" points="1783.16 1620.59 1764.44 1653.01 1708.29 1620.59 1652.14 1653.01 1670.86 1685.43 1708.29 1685.43 1708.29 1750.27 1764.44 1782.69 1783.16 1750.27 1820.6 1750.27 1820.6 1685.43"/>
              </g>
            </g>
            <g id="t00003f-10" data-name="t00003f">
              <g id="t00004f-22" data-name="t00004f">
                <polyline class="cls-3" points="1820.6 1815.11 1820.6 1750.27 1783.16 1750.27 1745.73 1815.11 1764.44 1847.53 1708.29 1879.95 1708.29 1944.79 1745.73 1944.79 1764.44 1912.37 1820.6 1944.79"/>
              </g>
            </g>
          </g>
          <g id="t00014f-3" data-name="t00014f">
            <g id="t00010f-11" data-name="t00010f">
              <g id="t00011f-19" data-name="t00011f">
                <polyline class="cls-6" points="1820.6 1490.91 1820.6 1555.75 1764.44 1588.17 1783.16 1620.59"/>
              </g>
            </g>
            <g id="t00003f-11" data-name="t00003f">
              <g id="t00004f-23" data-name="t00004f">
                <polyline class="cls-3" points="1820.6 1296.39 1764.44 1328.81 1783.16 1361.23 1764.44 1393.65 1820.6 1426.07 1820.6 1490.91"/>
              </g>
              <g id="t00004f-24" data-name="t00004f">
                <polygon class="cls-3" points="1595.99 1426.07 1595.99 1490.91 1633.42 1490.91 1670.86 1426.07 1652.14 1393.65 1708.29 1361.23 1708.29 1296.39 1670.86 1296.39 1652.14 1328.81 1595.99 1296.39 1539.83 1328.81 1558.55 1361.23 1539.83 1393.65 1595.99 1426.07"/>
              </g>
              <g id="t00004f-25" data-name="t00004f">
                <polygon class="cls-3" points="1708.29 1490.91 1652.14 1458.49 1633.42 1490.91 1670.86 1555.75 1708.29 1555.75 1708.29 1620.59 1764.44 1653.01 1783.16 1620.59 1764.44 1588.17 1820.6 1555.75 1820.6 1490.91 1783.16 1490.91 1764.44 1458.49 1708.29 1490.91"/>
              </g>
              <g id="t00005f-8" data-name="t00005f">
                <polygon class="cls-3" points="1708.29 1361.23 1708.29 1296.39 1745.73 1296.39 1783.16 1361.23 1764.44 1393.65 1820.6 1426.07 1820.6 1490.91 1783.16 1490.91 1764.44 1458.49 1708.29 1490.91 1652.14 1458.49 1670.86 1426.07 1652.14 1393.65 1708.29 1361.23"/>
              </g>
            </g>
            <g id="t00008f-8" data-name="t00008f">
              <g id="t00009f-12" data-name="t00009f">
                <polygon class="cls-2" points="1708.29 1231.55 1764.44 1199.13 1745.73 1166.72 1670.86 1166.72 1652.14 1199.13 1595.99 1166.72 1539.83 1199.13 1558.55 1231.55 1595.99 1231.55 1595.99 1296.39 1652.14 1328.81 1670.86 1296.39 1708.29 1296.39 1708.29 1231.55"/>
              </g>
              <g id="t00009f-13" data-name="t00009f">
                <polyline class="cls-3" points="1820.6 1231.55 1820.6 1166.72 1764.44 1134.3 1745.73 1166.72 1764.44 1199.13 1708.29 1231.55 1708.29 1296.39 1745.73 1296.39 1764.44 1328.81 1820.6 1296.39"/>
              </g>
            </g>
            <g id="t00003f-12" data-name="t00003f">
              <g id="t00004f-26" data-name="t00004f">
                <polygon class="cls-3" points="1708.29 972.2 1764.44 1004.62 1783.16 972.2 1745.73 907.36 1708.29 907.36 1708.29 842.52 1652.14 810.1 1633.42 842.52 1652.14 874.94 1595.99 907.36 1595.99 972.2 1633.42 972.2 1652.14 1004.62 1708.29 972.2"/>
              </g>
              <g id="t00004f-27" data-name="t00004f">
                <polygon class="cls-3" points="1595.99 1166.72 1652.14 1199.13 1670.86 1166.72 1633.42 1101.88 1595.99 1101.88 1595.99 1037.04 1539.83 1004.62 1521.12 1037.04 1539.83 1069.46 1483.68 1101.88 1483.68 1166.72 1521.12 1166.72 1539.83 1199.13 1595.99 1166.72"/>
              </g>
              <g id="t00004f-28" data-name="t00004f">
                <polyline class="cls-6" points="1820.6 1101.88 1820.6 1037.04 1764.44 1004.62 1745.73 1037.04 1708.29 1037.04 1708.29 1101.88 1652.14 1134.3 1670.86 1166.72 1745.73 1166.72 1764.44 1134.3 1820.6 1166.72"/>
              </g>
              <g id="t00005f-9" data-name="t00005f">
                <polygon class="cls-6" points="1595.99 1037.04 1539.83 1004.62 1558.55 972.2 1633.42 972.2 1652.14 1004.62 1708.29 972.2 1764.44 1004.62 1745.73 1037.04 1708.29 1037.04 1708.29 1101.88 1652.14 1134.3 1633.42 1101.88 1595.99 1101.88 1595.99 1037.04"/>
              </g>
            </g>
            <g id="t00010f-12" data-name="t00010f">
              <g id="t00011f-20" data-name="t00011f">
                <polyline class="cls-1" points="1820.6 842.52 1820.6 777.68 1764.44 745.26 1745.73 777.68 1764.44 810.1 1708.29 842.52 1708.29 907.36 1745.73 907.36 1764.44 939.78 1820.6 907.36"/>
              </g>
              <g id="t00011f-21" data-name="t00011f">
                <polyline class="cls-2" points="1820.6 907.36 1764.44 939.78 1783.16 972.2 1764.44 1004.62 1820.6 1037.04 1820.6 1101.88"/>
              </g>
            </g>
            <g id="t00010f-13" data-name="t00010f">
              <g id="t00011f-22" data-name="t00011f">
                <polygon class="cls-2" points="1483.68 972.2 1483.68 907.36 1446.25 907.36 1408.81 972.2 1427.53 1004.62 1371.38 1037.04 1371.38 1101.88 1408.81 1101.88 1427.53 1069.46 1483.68 1101.88 1539.83 1069.46 1521.12 1037.04 1539.83 1004.62 1483.68 972.2"/>
              </g>
              <g id="t00011f-23" data-name="t00011f">
                <polygon class="cls-6" points="1595.99 907.36 1652.14 874.94 1633.42 842.52 1558.55 842.52 1539.83 874.94 1483.68 842.52 1427.53 874.94 1446.25 907.36 1483.68 907.36 1483.68 972.2 1539.83 1004.62 1558.55 972.2 1595.99 972.2 1595.99 907.36"/>
              </g>
            </g>
          </g>
        </g>
        <g id="t00001f-3" data-name="t00001f">
          <g id="t00002f-3" data-name="t00002f">
            <g id="t00003f-13" data-name="t00003f">
              <g id="t00004f-29" data-name="t00004f">
                <polygon class="cls-2" points="136.02 64.45 192.17 96.87 210.89 64.45 173.46 -.39 136.02 -.39 136.02 -65.23 79.87 -97.65 61.15 -65.23 79.87 -32.81 23.72 -.39 23.72 64.45 61.15 64.45 79.87 96.87 136.02 64.45"/>
              </g>
              <g id="t00004f-30" data-name="t00004f">
                <polygon class="cls-2" points="248.33 -.39 192.17 32.03 210.89 64.45 285.76 64.45 304.48 32.03 360.63 64.45 416.78 32.03 398.07 -.39 360.63 -.39 360.63 -65.23 304.48 -97.65 285.76 -65.23 248.33 -65.23 248.33 -.39"/>
              </g>
              <g id="t00005f-10" data-name="t00005f">
                <polygon class="cls-2" points="136.02 -65.23 79.87 -97.65 98.59 -130.07 173.46 -130.07 192.17 -97.65 248.33 -130.07 304.48 -97.65 285.76 -65.23 248.33 -65.23 248.33 -.39 192.17 32.03 173.46 -.39 136.02 -.39 136.02 -65.23"/>
              </g>
            </g>
            <g id="t00003f-14" data-name="t00003f">
              <g id="t00004f-31" data-name="t00004f">
                <polyline class="cls-2" points="23.72 129.29 79.87 161.71 98.59 129.29 61.15 64.45 23.72 64.45 23.72 -.39"/>
              </g>
              <g id="t00004f-32" data-name="t00004f">
                <polyline class="cls-2" points="-13.72 323.8 61.15 323.8 79.87 291.38 136.02 323.8 192.17 291.38 173.46 258.97 136.02 258.97 136.02 194.13 79.87 161.71 61.15 194.13 23.72 194.13 23.72 258.97"/>
              </g>
              <g id="t00005f-11" data-name="t00005f">
                <polyline class="cls-2" points="23.72 129.29 79.87 161.71 61.15 194.13 23.72 194.13 23.72 258.97"/>
              </g>
            </g>
            <g id="t00003f-15" data-name="t00003f">
              <g id="t00004f-33" data-name="t00004f">
                <polygon class="cls-6" points="360.63 323.8 304.48 356.22 323.2 388.64 398.07 388.64 416.78 356.22 472.94 388.64 529.09 356.22 510.37 323.8 472.94 323.8 472.94 258.97 416.78 226.55 398.07 258.97 360.63 258.97 360.63 323.8"/>
              </g>
              <g id="t00004f-34" data-name="t00004f">
                <polygon class="cls-6" points="248.33 129.29 192.17 161.71 210.89 194.13 285.76 194.13 304.48 161.71 360.63 194.13 416.78 161.71 398.07 129.29 360.63 129.29 360.63 64.45 304.48 32.03 285.76 64.45 248.33 64.45 248.33 129.29"/>
              </g>
              <g id="t00004f-35" data-name="t00004f">
                <polygon class="cls-3" points="248.33 258.97 248.33 194.13 210.89 194.13 173.46 258.97 192.17 291.38 136.02 323.8 136.02 388.64 173.46 388.64 192.17 356.22 248.33 388.64 304.48 356.22 285.76 323.8 304.48 291.38 248.33 258.97"/>
              </g>
              <g id="t00005f-12" data-name="t00005f">
                <polygon class="cls-3" points="360.63 194.13 416.78 161.71 435.5 194.13 398.07 258.97 360.63 258.97 360.63 323.8 304.48 356.22 285.76 323.8 304.48 291.38 248.33 258.97 248.33 194.13 285.76 194.13 304.48 161.71 360.63 194.13"/>
              </g>
            </g>
            <g id="t00006f-2" data-name="t00006f">
              <g id="t00007f-2" data-name="t00007f">
                <polygon class="cls-1" points="136.02 194.13 136.02 258.97 173.46 258.97 210.89 194.13 192.17 161.71 248.33 129.29 248.33 64.45 210.89 64.45 192.17 96.87 136.02 64.45 79.87 96.87 98.59 129.29 79.87 161.71 136.02 194.13"/>
              </g>
            </g>
            <g id="t00008f-9" data-name="t00008f">
              <g id="t00009f-14" data-name="t00009f">
                <polygon class="cls-2" points="472.94 129.29 529.09 161.71 547.81 129.29 510.37 64.45 472.94 64.45 472.94 -.39 416.78 -32.81 398.07 -.39 416.78 32.03 360.63 64.45 360.63 129.29 398.07 129.29 416.78 161.71 472.94 129.29"/>
              </g>
              <g id="t00009f-15" data-name="t00009f">
                <polygon class="cls-3" points="472.94 258.97 472.94 323.8 510.37 323.8 547.81 258.97 529.09 226.55 585.24 194.13 585.24 129.29 547.81 129.29 529.09 161.71 472.94 129.29 416.78 161.71 435.5 194.13 416.78 226.55 472.94 258.97"/>
              </g>
            </g>
            <g id="t00010f-14" data-name="t00010f">
              <g id="t00011f-24" data-name="t00011f">
                <polygon class="cls-3" points="360.63 -65.23 360.63 -.39 398.07 -.39 435.5 -65.23 416.78 -97.65 472.94 -130.07 472.94 -194.91 435.5 -194.91 416.78 -162.49 360.63 -194.91 304.48 -162.49 323.2 -130.07 304.48 -97.65 360.63 -65.23"/>
              </g>
            </g>
            <g id="t00008f-10" data-name="t00008f">
              <g id="t00009f-16" data-name="t00009f">
                <polyline class="cls-1" points="23.72 -.39 79.87 -32.81 61.15 -65.23 79.87 -97.65 23.72 -130.07 23.72 -194.91 -13.72 -194.91"/>
              </g>
            </g>
            <g id="t00008f-11" data-name="t00008f">
              <g id="t00009f-17" data-name="t00009f">
                <polyline class="cls-2" points="-13.72 453.48 23.72 453.48 23.72 388.64 79.87 356.22 61.15 323.8 -13.72 323.8"/>
              </g>
              <g id="t00009f-18" data-name="t00009f">
                <polygon class="cls-3" points="136.02 453.48 192.17 485.9 210.89 453.48 173.46 388.64 136.02 388.64 136.02 323.8 79.87 291.38 61.15 323.8 79.87 356.22 23.72 388.64 23.72 453.48 61.15 453.48 79.87 485.9 136.02 453.48"/>
              </g>
            </g>
            <g id="t00010f-15" data-name="t00010f">
              <g id="t00011f-25" data-name="t00011f">
                <polygon class="cls-2" points="360.63 453.48 304.48 485.9 323.2 518.32 398.07 518.32 416.78 485.9 472.94 518.32 529.09 485.9 510.37 453.48 472.94 453.48 472.94 388.64 416.78 356.22 398.07 388.64 360.63 388.64 360.63 453.48"/>
              </g>
              <g id="t00011f-26" data-name="t00011f">
                <polygon class="cls-3" points="248.33 388.64 192.17 356.22 173.46 388.64 210.89 453.48 248.33 453.48 248.33 518.32 304.48 550.74 323.2 518.32 304.48 485.9 360.63 453.48 360.63 388.64 323.2 388.64 304.48 356.22 248.33 388.64"/>
              </g>
            </g>
          </g>
          <g id="t00002f-4" data-name="t00002f">
            <g id="t00003f-16" data-name="t00003f">
              <g id="t00004f-36" data-name="t00004f">
                <polygon class="cls-6" points="1146.77 518.32 1090.61 550.74 1109.33 583.16 1184.2 583.16 1202.92 550.74 1259.07 583.16 1315.22 550.74 1296.51 518.32 1259.07 518.32 1259.07 453.48 1202.92 421.06 1184.2 453.48 1146.77 453.48 1146.77 518.32"/>
              </g>
              <g id="t00004f-37" data-name="t00004f">
                <polygon class="cls-6" points="1034.46 323.8 978.31 356.22 997.03 388.64 1071.9 388.64 1090.61 356.22 1146.77 388.64 1202.92 356.22 1184.2 323.8 1146.77 323.8 1146.77 258.97 1090.61 226.55 1071.9 258.97 1034.46 258.97 1034.46 323.8"/>
              </g>
              <g id="t00004f-38" data-name="t00004f">
                <polygon class="cls-3" points="1034.46 453.48 1034.46 388.64 997.03 388.64 959.59 453.48 978.31 485.9 922.16 518.32 922.16 583.16 959.59 583.16 978.31 550.74 1034.46 583.16 1090.61 550.74 1071.9 518.32 1090.61 485.9 1034.46 453.48"/>
              </g>
              <g id="t00005f-13" data-name="t00005f">
                <polygon class="cls-3" points="1146.77 388.64 1202.92 356.22 1221.64 388.64 1184.2 453.48 1146.77 453.48 1146.77 518.32 1090.61 550.74 1071.9 518.32 1090.61 485.9 1034.46 453.48 1034.46 388.64 1071.9 388.64 1090.61 356.22 1146.77 388.64"/>
              </g>
            </g>
            <g id="t00003f-17" data-name="t00003f">
              <g id="t00004f-39" data-name="t00004f">
                <polygon class="cls-6" points="1034.46 194.13 978.31 226.55 997.03 258.97 1071.9 258.97 1090.61 226.55 1146.77 258.97 1202.92 226.55 1184.2 194.13 1146.77 194.13 1146.77 129.29 1090.61 96.87 1071.9 129.29 1034.46 129.29 1034.46 194.13"/>
              </g>
              <g id="t00004f-40" data-name="t00004f">
                <polygon class="cls-6" points="922.16 -.39 866 32.03 884.72 64.45 959.59 64.45 978.31 32.03 1034.46 64.45 1090.61 32.03 1071.9 -.39 1034.46 -.39 1034.46 -65.23 978.31 -97.65 959.59 -65.23 922.16 -65.23 922.16 -.39"/>
              </g>
              <g id="t00004f-41" data-name="t00004f">
                <polygon class="cls-3" points="922.16 129.29 922.16 64.45 884.72 64.45 847.29 129.29 866 161.71 809.85 194.13 809.85 258.97 847.29 258.97 866 226.55 922.16 258.97 978.31 226.55 959.59 194.13 978.31 161.71 922.16 129.29"/>
              </g>
              <g id="t00005f-14" data-name="t00005f">
                <polygon class="cls-3" points="1034.46 64.45 1090.61 32.03 1109.33 64.45 1071.9 129.29 1034.46 129.29 1034.46 194.13 978.31 226.55 959.59 194.13 978.31 161.71 922.16 129.29 922.16 64.45 959.59 64.45 978.31 32.03 1034.46 64.45"/>
              </g>
            </g>
            <g id="t00003f-18" data-name="t00003f">
              <g id="t00004f-42" data-name="t00004f">
                <polygon class="cls-4" points="697.55 388.64 697.55 323.8 660.11 323.8 622.68 388.64 641.39 421.06 585.24 453.48 585.24 518.32 622.68 518.32 641.39 485.9 697.55 518.32 753.7 485.9 734.98 453.48 753.7 421.06 697.55 388.64"/>
              </g>
              <g id="t00004f-43" data-name="t00004f">
                <polygon class="cls-4" points="922.16 388.64 922.16 323.8 884.72 323.8 847.29 388.64 866 421.06 809.85 453.48 809.85 518.32 847.29 518.32 866 485.9 922.16 518.32 978.31 485.9 959.59 453.48 978.31 421.06 922.16 388.64"/>
              </g>
              <g id="t00004f-44" data-name="t00004f">
                <polygon class="cls-4" points="809.85 323.8 866 356.22 884.72 323.8 847.29 258.97 809.85 258.97 809.85 194.13 753.7 161.71 734.98 194.13 753.7 226.55 697.55 258.97 697.55 323.8 734.98 323.8 753.7 356.22 809.85 323.8"/>
              </g>
              <g id="t00005f-15" data-name="t00005f">
                <polygon class="cls-4" points="809.85 453.48 809.85 518.32 772.42 518.32 734.98 453.48 753.7 421.06 697.55 388.64 697.55 323.8 734.98 323.8 753.7 356.22 809.85 323.8 866 356.22 847.29 388.64 866 421.06 809.85 453.48"/>
              </g>
            </g>
            <g id="t00006f-3" data-name="t00006f">
              <g id="t00007f-3" data-name="t00007f">
                <polygon class="cls-2" points="922.16 258.97 866 226.55 847.29 258.97 884.72 323.8 922.16 323.8 922.16 388.64 978.31 421.06 997.03 388.64 978.31 356.22 1034.46 323.8 1034.46 258.97 997.03 258.97 978.31 226.55 922.16 258.97"/>
              </g>
            </g>
            <g id="t00008f-12" data-name="t00008f">
              <g id="t00009f-19" data-name="t00009f">
                <polygon class="cls-6" points="809.85 583.16 753.7 615.58 772.42 648 847.29 648 866 615.58 922.16 648 978.31 615.58 959.59 583.16 922.16 583.16 922.16 518.32 866 485.9 847.29 518.32 809.85 518.32 809.85 583.16"/>
              </g>
              <g id="t00009f-20" data-name="t00009f">
                <polygon class="cls-4" points="697.55 518.32 641.39 485.9 622.68 518.32 660.11 583.16 697.55 583.16 697.55 648 753.7 680.42 772.42 648 753.7 615.58 809.85 583.16 809.85 518.32 772.42 518.32 753.7 485.9 697.55 518.32"/>
              </g>
            </g>
            <g id="t00010f-16" data-name="t00010f">
              <g id="t00011f-27" data-name="t00011f">
                <polygon class="cls-6" points="1146.77 648 1090.61 680.42 1109.33 712.84 1184.2 712.84 1202.92 680.42 1259.07 712.84 1315.22 680.42 1296.51 648 1259.07 648 1259.07 583.16 1202.92 550.74 1184.2 583.16 1146.77 583.16 1146.77 648"/>
              </g>
              <g id="t00011f-28" data-name="t00011f">
                <polygon class="cls-4" points="1034.46 583.16 978.31 550.74 959.59 583.16 997.03 648 1034.46 648 1034.46 712.84 1090.61 745.26 1109.33 712.84 1090.61 680.42 1146.77 648 1146.77 583.16 1109.33 583.16 1090.61 550.74 1034.46 583.16"/>
              </g>
            </g>
            <g id="t00008f-13" data-name="t00008f">
              <g id="t00009f-21" data-name="t00009f">
                <polygon class="cls-2" points="1259.07 323.8 1315.22 356.22 1333.94 323.8 1296.51 258.97 1259.07 258.97 1259.07 194.13 1202.92 161.71 1184.2 194.13 1202.92 226.55 1146.77 258.97 1146.77 323.8 1184.2 323.8 1202.92 356.22 1259.07 323.8"/>
              </g>
              <g id="t00009f-22" data-name="t00009f">
                <polygon class="cls-3" points="1259.07 453.48 1259.07 518.32 1296.51 518.32 1333.94 453.48 1315.22 421.06 1371.38 388.64 1371.38 323.8 1333.94 323.8 1315.22 356.22 1259.07 323.8 1202.92 356.22 1221.64 388.64 1202.92 421.06 1259.07 453.48"/>
              </g>
            </g>
            <g id="t00010f-17" data-name="t00010f">
              <g id="t00011f-29" data-name="t00011f">
                <polygon class="cls-2" points="1146.77 -.39 1202.92 32.03 1221.64 -.39 1184.2 -65.23 1146.77 -65.23 1146.77 -130.07 1090.61 -162.49 1071.9 -130.07 1090.61 -97.65 1034.46 -65.23 1034.46 -.39 1071.9 -.39 1090.61 32.03 1146.77 -.39"/>
              </g>
              <g id="t00011f-30" data-name="t00011f">
                <polygon class="cls-3" points="1146.77 129.29 1146.77 194.13 1184.2 194.13 1221.64 129.29 1202.92 96.87 1259.07 64.45 1259.07 -.39 1221.64 -.39 1202.92 32.03 1146.77 -.39 1090.61 32.03 1109.33 64.45 1090.61 96.87 1146.77 129.29"/>
              </g>
            </g>
            <g id="t00008f-14" data-name="t00008f">
              <g id="t00009f-23" data-name="t00009f">
                <polygon class="cls-3" points="809.85 64.45 809.85 129.29 847.29 129.29 884.72 64.45 866 32.03 922.16 -.39 922.16 -65.23 884.72 -65.23 866 -32.81 809.85 -65.23 753.7 -32.81 772.42 -.39 753.7 32.03 809.85 64.45"/>
              </g>
              <g id="t00009f-24" data-name="t00009f">
                <polygon class="cls-4" points="697.55 129.29 641.39 161.71 660.11 194.13 734.98 194.13 753.7 161.71 809.85 194.13 866 161.71 847.29 129.29 809.85 129.29 809.85 64.45 753.7 32.03 734.98 64.45 697.55 64.45 697.55 129.29"/>
              </g>
            </g>
            <g id="t00010f-18" data-name="t00010f">
              <g id="t00011f-31" data-name="t00011f">
                <polygon class="cls-3" points="585.24 323.8 585.24 258.97 547.81 258.97 510.37 323.8 529.09 356.22 472.94 388.64 472.94 453.48 510.37 453.48 529.09 421.06 585.24 453.48 641.39 421.06 622.68 388.64 641.39 356.22 585.24 323.8"/>
              </g>
              <g id="t00011f-32" data-name="t00011f">
                <polygon class="cls-4" points="697.55 258.97 753.7 226.55 734.98 194.13 660.11 194.13 641.39 226.55 585.24 194.13 529.09 226.55 547.81 258.97 585.24 258.97 585.24 323.8 641.39 356.22 660.11 323.8 697.55 323.8 697.55 258.97"/>
              </g>
            </g>
          </g>
          <g id="t00012f">
            <g id="t00003f-19" data-name="t00003f">
              <g id="t00004f-45" data-name="t00004f">
                <polygon class="cls-3" points="697.55 -.39 697.55 64.45 734.98 64.45 772.42 -.39 753.7 -32.81 809.85 -65.23 809.85 -130.07 772.42 -130.07 753.7 -97.65 697.55 -130.07 641.39 -97.65 660.11 -65.23 641.39 -32.81 697.55 -.39"/>
              </g>
              <g id="t00004f-46" data-name="t00004f">
                <polygon class="cls-3" points="472.94 -.39 472.94 64.45 510.37 64.45 547.81 -.39 529.09 -32.81 585.24 -65.23 585.24 -130.07 547.81 -130.07 529.09 -97.65 472.94 -130.07 416.78 -97.65 435.5 -65.23 416.78 -32.81 472.94 -.39"/>
              </g>
              <g id="t00004f-47" data-name="t00004f">
                <polygon class="cls-3" points="585.24 64.45 529.09 32.03 510.37 64.45 547.81 129.29 585.24 129.29 585.24 194.13 641.39 226.55 660.11 194.13 641.39 161.71 697.55 129.29 697.55 64.45 660.11 64.45 641.39 32.03 585.24 64.45"/>
              </g>
              <g id="t00005f-16" data-name="t00005f">
                <polygon class="cls-3" points="585.24 -65.23 585.24 -130.07 622.68 -130.07 660.11 -65.23 641.39 -32.81 697.55 -.39 697.55 64.45 660.11 64.45 641.39 32.03 585.24 64.45 529.09 32.03 547.81 -.39 529.09 -32.81 585.24 -65.23"/>
              </g>
            </g>
          </g>
          <g id="t00013f-4" data-name="t00013f">
            <g id="t00010f-19" data-name="t00010f">
              <g id="t00011f-33" data-name="t00011f">
                <polygon class="cls-3" points="1595.99 258.97 1595.99 323.8 1633.42 323.8 1670.86 258.97 1652.14 226.55 1708.29 194.13 1708.29 129.29 1670.86 129.29 1652.14 161.71 1595.99 129.29 1539.83 161.71 1558.55 194.13 1539.83 226.55 1595.99 258.97"/>
              </g>
              <g id="t00011f-34" data-name="t00011f">
                <polygon class="cls-4" points="1483.68 323.8 1427.53 356.22 1446.25 388.64 1521.12 388.64 1539.83 356.22 1595.99 388.64 1652.14 356.22 1633.42 323.8 1595.99 323.8 1595.99 258.97 1539.83 226.55 1521.12 258.97 1483.68 258.97 1483.68 323.8"/>
              </g>
            </g>
            <g id="t00003f-20" data-name="t00003f">
              <g id="t00004f-48" data-name="t00004f">
                <polygon class="cls-4" points="1483.68 194.13 1483.68 258.97 1521.12 258.97 1558.55 194.13 1539.83 161.71 1595.99 129.29 1595.99 64.45 1558.55 64.45 1539.83 96.87 1483.68 64.45 1427.53 96.87 1446.25 129.29 1427.53 161.71 1483.68 194.13"/>
              </g>
              <g id="t00004f-49" data-name="t00004f">
                <polygon class="cls-4" points="1259.07 194.13 1259.07 258.97 1296.51 258.97 1333.94 194.13 1315.22 161.71 1371.38 129.29 1371.38 64.45 1333.94 64.45 1315.22 96.87 1259.07 64.45 1202.92 96.87 1221.64 129.29 1202.92 161.71 1259.07 194.13"/>
              </g>
              <g id="t00004f-50" data-name="t00004f">
                <polygon class="cls-4" points="1371.38 258.97 1315.22 226.55 1296.51 258.97 1333.94 323.8 1371.38 323.8 1371.38 388.64 1427.53 421.06 1446.25 388.64 1427.53 356.22 1483.68 323.8 1483.68 258.97 1446.25 258.97 1427.53 226.55 1371.38 258.97"/>
              </g>
              <g id="t00005f-17" data-name="t00005f">
                <polygon class="cls-4" points="1371.38 129.29 1371.38 64.45 1408.81 64.45 1446.25 129.29 1427.53 161.71 1483.68 194.13 1483.68 258.97 1446.25 258.97 1427.53 226.55 1371.38 258.97 1315.22 226.55 1333.94 194.13 1315.22 161.71 1371.38 129.29"/>
              </g>
            </g>
            <g id="t00008f-15" data-name="t00008f">
              <g id="t00009f-25" data-name="t00009f">
                <polygon class="cls-6" points="1371.38 -.39 1427.53 -32.81 1408.81 -65.23 1333.94 -65.23 1315.22 -32.81 1259.07 -65.23 1202.92 -32.81 1221.64 -.39 1259.07 -.39 1259.07 64.45 1315.22 96.87 1333.94 64.45 1371.38 64.45 1371.38 -.39"/>
              </g>
              <g id="t00009f-26" data-name="t00009f">
                <polygon class="cls-4" points="1483.68 64.45 1539.83 96.87 1558.55 64.45 1521.12 -.39 1483.68 -.39 1483.68 -65.23 1427.53 -97.65 1408.81 -65.23 1427.53 -32.81 1371.38 -.39 1371.38 64.45 1408.81 64.45 1427.53 96.87 1483.68 64.45"/>
              </g>
            </g>
          </g>
          <g id="t00013f-5" data-name="t00013f">
            <g id="t00010f-20" data-name="t00010f">
              <g id="t00011f-35" data-name="t00011f">
                <polygon class="cls-3" points="585.24 583.16 641.39 615.58 660.11 583.16 622.68 518.32 585.24 518.32 585.24 453.48 529.09 421.06 510.37 453.48 529.09 485.9 472.94 518.32 472.94 583.16 510.37 583.16 529.09 615.58 585.24 583.16"/>
              </g>
              <g id="t00011f-36" data-name="t00011f">
                <polygon class="cls-4" points="585.24 712.84 585.24 777.68 622.68 777.68 660.11 712.84 641.39 680.42 697.55 648 697.55 583.16 660.11 583.16 641.39 615.58 585.24 583.16 529.09 615.58 547.81 648 529.09 680.42 585.24 712.84"/>
              </g>
            </g>
            <g id="t00003f-21" data-name="t00003f">
              <g id="t00004f-51" data-name="t00004f">
                <polygon class="cls-4" points="472.94 648 529.09 680.42 547.81 648 510.37 583.16 472.94 583.16 472.94 518.32 416.78 485.9 398.07 518.32 416.78 550.74 360.63 583.16 360.63 648 398.07 648 416.78 680.42 472.94 648"/>
              </g>
              <g id="t00004f-52" data-name="t00004f">
                <polygon class="cls-4" points="360.63 842.52 416.78 874.94 435.5 842.52 398.07 777.68 360.63 777.68 360.63 712.84 304.48 680.42 285.76 712.84 304.48 745.26 248.33 777.68 248.33 842.52 285.76 842.52 304.48 874.94 360.63 842.52"/>
              </g>
              <g id="t00004f-53" data-name="t00004f">
                <polygon class="cls-4" points="472.94 777.68 416.78 810.1 435.5 842.52 510.37 842.52 529.09 810.1 585.24 842.52 641.39 810.1 622.68 777.68 585.24 777.68 585.24 712.84 529.09 680.42 510.37 712.84 472.94 712.84 472.94 777.68"/>
              </g>
              <g id="t00005f-18" data-name="t00005f">
                <polygon class="cls-4" points="360.63 712.84 304.48 680.42 323.2 648 398.07 648 416.78 680.42 472.94 648 529.09 680.42 510.37 712.84 472.94 712.84 472.94 777.68 416.78 810.1 398.07 777.68 360.63 777.68 360.63 712.84"/>
              </g>
            </g>
            <g id="t00008f-16" data-name="t00008f">
              <g id="t00009f-27" data-name="t00009f">
                <polygon class="cls-3" points="248.33 648 248.33 583.16 210.89 583.16 173.46 648 192.17 680.42 136.02 712.84 136.02 777.68 173.46 777.68 192.17 745.26 248.33 777.68 304.48 745.26 285.76 712.84 304.48 680.42 248.33 648"/>
              </g>
              <g id="t00009f-28" data-name="t00009f">
                <polygon class="cls-4" points="360.63 583.16 416.78 550.74 398.07 518.32 323.2 518.32 304.48 550.74 248.33 518.32 192.17 550.74 210.89 583.16 248.33 583.16 248.33 648 304.48 680.42 323.2 648 360.63 648 360.63 583.16"/>
              </g>
            </g>
            <g id="t00003f-22" data-name="t00003f">
              <g id="t00004f-54" data-name="t00004f">
                <polyline class="cls-4" points="-13.72 583.16 23.72 583.16 23.72 518.32 79.87 485.9 61.15 453.48 -13.72 453.48"/>
              </g>
              <g id="t00004f-55" data-name="t00004f">
                <polyline class="cls-4" points="-13.72 712.84 23.72 712.84 23.72 777.68 79.87 810.1 98.59 777.68 136.02 777.68 136.02 712.84 192.17 680.42 173.46 648 98.59 648 79.87 680.42 23.72 648"/>
              </g>
              <g id="t00004f-56" data-name="t00004f">
                <polygon class="cls-4" points="136.02 583.16 136.02 648 173.46 648 210.89 583.16 192.17 550.74 248.33 518.32 248.33 453.48 210.89 453.48 192.17 485.9 136.02 453.48 79.87 485.9 98.59 518.32 79.87 550.74 136.02 583.16"/>
              </g>
              <g id="t00005f-19" data-name="t00005f">
                <polyline class="cls-4" points="-13.72 583.16 23.72 583.16 23.72 518.32 79.87 485.9 98.59 518.32 79.87 550.74 136.02 583.16 136.02 648 98.59 648 79.87 680.42 23.72 648"/>
              </g>
            </g>
            <g id="t00010f-21" data-name="t00010f">
              <g id="t00011f-37" data-name="t00011f">
                <polyline class="cls-3" points="23.72 777.68 23.72 712.84 -13.72 712.84"/>
              </g>
            </g>
          </g>
          <g id="t00014f-4" data-name="t00014f">
            <g id="t00010f-22" data-name="t00010f">
              <g id="t00011f-38" data-name="t00011f">
                <polygon class="cls-3" points="697.55 907.36 641.39 874.94 622.68 907.36 660.11 972.2 697.55 972.2 697.55 1037.04 753.7 1069.46 772.42 1037.04 753.7 1004.62 809.85 972.2 809.85 907.36 772.42 907.36 753.7 874.94 697.55 907.36"/>
              </g>
              <g id="t00011f-39" data-name="t00011f">
                <polygon class="cls-4" points="697.55 777.68 697.55 712.84 660.11 712.84 622.68 777.68 641.39 810.1 585.24 842.52 585.24 907.36 622.68 907.36 641.39 874.94 697.55 907.36 753.7 874.94 734.98 842.52 753.7 810.1 697.55 777.68"/>
              </g>
            </g>
            <g id="t00003f-23" data-name="t00003f">
              <g id="t00004f-57" data-name="t00004f">
                <polygon class="cls-4" points="809.85 842.52 753.7 810.1 734.98 842.52 772.42 907.36 809.85 907.36 809.85 972.2 866 1004.62 884.72 972.2 866 939.78 922.16 907.36 922.16 842.52 884.72 842.52 866 810.1 809.85 842.52"/>
              </g>
              <g id="t00004f-58" data-name="t00004f">
                <polygon class="cls-4" points="922.16 648 866 615.58 847.29 648 884.72 712.84 922.16 712.84 922.16 777.68 978.31 810.1 997.03 777.68 978.31 745.26 1034.46 712.84 1034.46 648 997.03 648 978.31 615.58 922.16 648"/>
              </g>
              <g id="t00004f-59" data-name="t00004f">
                <polygon class="cls-4" points="809.85 712.84 866 680.42 847.29 648 772.42 648 753.7 680.42 697.55 648 641.39 680.42 660.11 712.84 697.55 712.84 697.55 777.68 753.7 810.1 772.42 777.68 809.85 777.68 809.85 712.84"/>
              </g>
              <g id="t00005f-20" data-name="t00005f">
                <polygon class="cls-4" points="922.16 777.68 978.31 810.1 959.59 842.52 884.72 842.52 866 810.1 809.85 842.52 753.7 810.1 772.42 777.68 809.85 777.68 809.85 712.84 866 680.42 884.72 712.84 922.16 712.84 922.16 777.68"/>
              </g>
            </g>
            <g id="t00008f-17" data-name="t00008f">
              <g id="t00009f-29" data-name="t00009f">
                <polygon class="cls-3" points="1034.46 842.52 1034.46 907.36 1071.9 907.36 1109.33 842.52 1090.61 810.1 1146.77 777.68 1146.77 712.84 1109.33 712.84 1090.61 745.26 1034.46 712.84 978.31 745.26 997.03 777.68 978.31 810.1 1034.46 842.52"/>
              </g>
              <g id="t00009f-30" data-name="t00009f">
                <polygon class="cls-4" points="922.16 907.36 866 939.78 884.72 972.2 959.59 972.2 978.31 939.78 1034.46 972.2 1090.61 939.78 1071.9 907.36 1034.46 907.36 1034.46 842.52 978.31 810.1 959.59 842.52 922.16 842.52 922.16 907.36"/>
              </g>
            </g>
            <g id="t00003f-24" data-name="t00003f">
              <g id="t00004f-60" data-name="t00004f">
                <polygon class="cls-4" points="1259.07 972.2 1202.92 1004.62 1221.64 1037.04 1296.51 1037.04 1315.22 1004.62 1371.38 1037.04 1427.53 1004.62 1408.81 972.2 1371.38 972.2 1371.38 907.36 1315.22 874.94 1296.51 907.36 1259.07 907.36 1259.07 972.2"/>
              </g>
              <g id="t00004f-61" data-name="t00004f">
                <polygon class="cls-4" points="1146.77 777.68 1090.61 810.1 1109.33 842.52 1184.2 842.52 1202.92 810.1 1259.07 842.52 1315.22 810.1 1296.51 777.68 1259.07 777.68 1259.07 712.84 1202.92 680.42 1184.2 712.84 1146.77 712.84 1146.77 777.68"/>
              </g>
              <g id="t00004f-62" data-name="t00004f">
                <polygon class="cls-4" points="1146.77 907.36 1146.77 842.52 1109.33 842.52 1071.9 907.36 1090.61 939.78 1034.46 972.2 1034.46 1037.04 1071.9 1037.04 1090.61 1004.62 1146.77 1037.04 1202.92 1004.62 1184.2 972.2 1202.92 939.78 1146.77 907.36"/>
              </g>
              <g id="t00005f-21" data-name="t00005f">
                <polygon class="cls-4" points="1259.07 842.52 1315.22 810.1 1333.94 842.52 1296.51 907.36 1259.07 907.36 1259.07 972.2 1202.92 1004.62 1184.2 972.2 1202.92 939.78 1146.77 907.36 1146.77 842.52 1184.2 842.52 1202.92 810.1 1259.07 842.52"/>
              </g>
            </g>
            <g id="t00010f-23" data-name="t00010f">
              <g id="t00011f-40" data-name="t00011f">
                <polygon class="cls-2" points="1259.07 1101.88 1202.92 1134.3 1221.64 1166.72 1296.51 1166.72 1315.22 1134.3 1371.38 1166.72 1427.53 1134.3 1408.81 1101.88 1371.38 1101.88 1371.38 1037.04 1315.22 1004.62 1296.51 1037.04 1259.07 1037.04 1259.07 1101.88"/>
              </g>
              <g id="t00011f-41" data-name="t00011f">
                <polygon class="cls-3" points="1146.77 1037.04 1090.61 1004.62 1071.9 1037.04 1109.33 1101.88 1146.77 1101.88 1146.77 1166.72 1202.92 1199.13 1221.64 1166.72 1202.92 1134.3 1259.07 1101.88 1259.07 1037.04 1221.64 1037.04 1202.92 1004.62 1146.77 1037.04"/>
              </g>
            </g>
            <g id="t00010f-24" data-name="t00010f">
              <g id="t00011f-42" data-name="t00011f">
                <polygon class="cls-3" points="1371.38 777.68 1427.53 810.1 1446.25 777.68 1408.81 712.84 1371.38 712.84 1371.38 648 1315.22 615.58 1296.51 648 1315.22 680.42 1259.07 712.84 1259.07 777.68 1296.51 777.68 1315.22 810.1 1371.38 777.68"/>
              </g>
              <g id="t00011f-43" data-name="t00011f">
                <polygon class="cls-4" points="1371.38 907.36 1371.38 972.2 1408.81 972.2 1446.25 907.36 1427.53 874.94 1483.68 842.52 1483.68 777.68 1446.25 777.68 1427.53 810.1 1371.38 777.68 1315.22 810.1 1333.94 842.52 1315.22 874.94 1371.38 907.36"/>
              </g>
            </g>
          </g>
        </g>
        <g id="t00015f">
          <g id="t00002f-5" data-name="t00002f">
            <g id="t00003f-25" data-name="t00003f">
              <g id="t00004f-63" data-name="t00004f">
                <polyline class="cls-2" points="-13.72 972.2 23.72 972.2 23.72 1037.04 79.87 1069.46 98.59 1037.04 136.02 1037.04 136.02 972.2 192.17 939.78 173.46 907.36 98.59 907.36 79.87 939.78 23.72 907.36"/>
              </g>
              <g id="t00004f-64" data-name="t00004f">
                <polygon class="cls-2" points="248.33 1166.72 304.48 1134.3 285.76 1101.88 210.89 1101.88 192.17 1134.3 136.02 1101.88 79.87 1134.3 98.59 1166.72 136.02 1166.72 136.02 1231.55 192.17 1263.97 210.89 1231.55 248.33 1231.55 248.33 1166.72"/>
              </g>
              <g id="t00004f-65" data-name="t00004f">
                <polygon class="cls-2" points="248.33 1037.04 248.33 1101.88 285.76 1101.88 323.2 1037.04 304.48 1004.62 360.63 972.2 360.63 907.36 323.2 907.36 304.48 939.78 248.33 907.36 192.17 939.78 210.89 972.2 192.17 1004.62 248.33 1037.04"/>
              </g>
              <g id="t00005f-22" data-name="t00005f">
                <polygon class="cls-2" points="136.02 1101.88 79.87 1134.3 61.15 1101.88 98.59 1037.04 136.02 1037.04 136.02 972.2 192.17 939.78 210.89 972.2 192.17 1004.62 248.33 1037.04 248.33 1101.88 210.89 1101.88 192.17 1134.3 136.02 1101.88"/>
              </g>
            </g>
            <g id="t00003f-26" data-name="t00003f">
              <g id="t00004f-66" data-name="t00004f">
                <polygon class="cls-2" points="248.33 1296.39 304.48 1263.97 285.76 1231.55 210.89 1231.55 192.17 1263.97 136.02 1231.55 79.87 1263.97 98.59 1296.39 136.02 1296.39 136.02 1361.23 192.17 1393.65 210.89 1361.23 248.33 1361.23 248.33 1296.39"/>
              </g>
              <g id="t00004f-67" data-name="t00004f">
                <polygon class="cls-2" points="360.63 1490.91 416.78 1458.49 398.07 1426.07 323.2 1426.07 304.48 1458.49 248.33 1426.07 192.17 1458.49 210.89 1490.91 248.33 1490.91 248.33 1555.75 304.48 1588.17 323.2 1555.75 360.63 1555.75 360.63 1490.91"/>
              </g>
              <g id="t00004f-68" data-name="t00004f">
                <polygon class="cls-2" points="360.63 1361.23 360.63 1426.07 398.07 1426.07 435.5 1361.23 416.78 1328.81 472.94 1296.39 472.94 1231.55 435.5 1231.55 416.78 1263.97 360.63 1231.55 304.48 1263.97 323.2 1296.39 304.48 1328.81 360.63 1361.23"/>
              </g>
              <g id="t00005f-23" data-name="t00005f">
                <polygon class="cls-2" points="248.33 1426.07 192.17 1458.49 173.46 1426.07 210.89 1361.23 248.33 1361.23 248.33 1296.39 304.48 1263.97 323.2 1296.39 304.48 1328.81 360.63 1361.23 360.63 1426.07 323.2 1426.07 304.48 1458.49 248.33 1426.07"/>
              </g>
            </g>
            <g id="t00003f-27" data-name="t00003f">
              <g id="t00004f-69" data-name="t00004f">
                <polygon class="cls-3" points="585.24 1101.88 585.24 1166.72 622.68 1166.72 660.11 1101.88 641.39 1069.46 697.55 1037.04 697.55 972.2 660.11 972.2 641.39 1004.62 585.24 972.2 529.09 1004.62 547.81 1037.04 529.09 1069.46 585.24 1101.88"/>
              </g>
              <g id="t00004f-70" data-name="t00004f">
                <polygon class="cls-3" points="360.63 1101.88 360.63 1166.72 398.07 1166.72 435.5 1101.88 416.78 1069.46 472.94 1037.04 472.94 972.2 435.5 972.2 416.78 1004.62 360.63 972.2 304.48 1004.62 323.2 1037.04 304.48 1069.46 360.63 1101.88"/>
              </g>
              <g id="t00004f-71" data-name="t00004f">
                <polygon class="cls-3" points="472.94 1166.72 416.78 1134.3 398.07 1166.72 435.5 1231.55 472.94 1231.55 472.94 1296.39 529.09 1328.81 547.81 1296.39 529.09 1263.97 585.24 1231.55 585.24 1166.72 547.81 1166.72 529.09 1134.3 472.94 1166.72"/>
              </g>
              <g id="t00005f-24" data-name="t00005f">
                <polygon class="cls-3" points="472.94 1037.04 472.94 972.2 510.37 972.2 547.81 1037.04 529.09 1069.46 585.24 1101.88 585.24 1166.72 547.81 1166.72 529.09 1134.3 472.94 1166.72 416.78 1134.3 435.5 1101.88 416.78 1069.46 472.94 1037.04"/>
              </g>
            </g>
            <g id="t00006f-4" data-name="t00006f">
              <g id="t00007f-4" data-name="t00007f">
                <polygon class="cls-1" points="360.63 1231.55 416.78 1263.97 435.5 1231.55 398.07 1166.72 360.63 1166.72 360.63 1101.88 304.48 1069.46 285.76 1101.88 304.48 1134.3 248.33 1166.72 248.33 1231.55 285.76 1231.55 304.48 1263.97 360.63 1231.55"/>
              </g>
            </g>
            <g id="t00008f-18" data-name="t00008f">
              <g id="t00009f-31" data-name="t00009f">
                <polygon class="cls-2" points="472.94 907.36 529.09 874.94 510.37 842.52 435.5 842.52 416.78 874.94 360.63 842.52 304.48 874.94 323.2 907.36 360.63 907.36 360.63 972.2 416.78 1004.62 435.5 972.2 472.94 972.2 472.94 907.36"/>
              </g>
              <g id="t00009f-32" data-name="t00009f">
                <polygon class="cls-3" points="585.24 972.2 641.39 1004.62 660.11 972.2 622.68 907.36 585.24 907.36 585.24 842.52 529.09 810.1 510.37 842.52 529.09 874.94 472.94 907.36 472.94 972.2 510.37 972.2 529.09 1004.62 585.24 972.2"/>
              </g>
            </g>
            <g id="t00010f-25" data-name="t00010f">
              <g id="t00011f-44" data-name="t00011f">
                <polyline class="cls-2" points="-13.72 842.52 23.72 842.52 23.72 907.36 79.87 939.78 98.59 907.36 136.02 907.36 136.02 842.52 192.17 810.1 173.46 777.68 98.59 777.68 79.87 810.1 23.72 777.68"/>
              </g>
              <g id="t00011f-45" data-name="t00011f">
                <polygon class="cls-3" points="248.33 907.36 304.48 939.78 323.2 907.36 285.76 842.52 248.33 842.52 248.33 777.68 192.17 745.26 173.46 777.68 192.17 810.1 136.02 842.52 136.02 907.36 173.46 907.36 192.17 939.78 248.33 907.36"/>
              </g>
            </g>
            <g id="t00008f-19" data-name="t00008f">
              <g id="t00009f-33" data-name="t00009f">
                <polyline class="cls-1" points="-13.72 1231.55 23.72 1231.55 23.72 1296.39 79.87 1328.81 98.59 1296.39 79.87 1263.97 136.02 1231.55 136.02 1166.72 98.59 1166.72 79.87 1134.3 23.72 1166.72"/>
              </g>
              <g id="t00009f-34" data-name="t00009f">
                <polyline class="cls-2" points="23.72 1166.72 79.87 1134.3 61.15 1101.88 79.87 1069.46 23.72 1037.04 23.72 972.2 -13.72 972.2"/>
              </g>
            </g>
            <g id="t00010f-26" data-name="t00010f">
              <g id="t00011f-46" data-name="t00011f">
                <polygon class="cls-1" points="136.02 1490.91 79.87 1458.49 61.15 1490.91 98.59 1555.75 136.02 1555.75 136.02 1620.59 192.18 1653.01 210.89 1620.59 192.18 1588.17 248.33 1555.75 248.33 1490.91 210.89 1490.91 192.18 1458.49 136.02 1490.91"/>
              </g>
              <g id="t00011f-47" data-name="t00011f">
                <polygon class="cls-2" points="136.02 1361.23 136.02 1296.39 98.59 1296.39 61.15 1361.23 79.87 1393.65 23.72 1426.07 23.72 1490.91 61.15 1490.91 79.87 1458.49 136.02 1490.91 192.18 1458.49 173.46 1426.07 192.18 1393.65 136.02 1361.23"/>
              </g>
            </g>
            <g id="t00008f-20" data-name="t00008f">
              <g id="t00009f-35" data-name="t00009f">
                <polygon class="cls-2" points="472.94 1426.07 472.94 1361.23 435.5 1361.23 398.07 1426.07 416.78 1458.49 360.63 1490.91 360.63 1555.75 398.07 1555.75 416.78 1523.33 472.94 1555.75 529.09 1523.33 510.37 1490.91 529.09 1458.49 472.94 1426.07"/>
              </g>
              <g id="t00009f-36" data-name="t00009f">
                <polygon class="cls-6" points="585.24 1361.23 641.39 1328.81 622.68 1296.39 547.81 1296.39 529.09 1328.81 472.94 1296.39 416.78 1328.81 435.5 1361.23 472.94 1361.23 472.94 1426.07 529.09 1458.49 547.81 1426.07 585.24 1426.07 585.24 1361.23"/>
              </g>
            </g>
            <g id="t00010f-27" data-name="t00010f">
              <g id="t00011f-48" data-name="t00011f">
                <polygon class="cls-2" points="697.55 1166.72 697.55 1231.55 734.98 1231.55 772.42 1166.72 753.7 1134.3 809.85 1101.88 809.85 1037.04 772.42 1037.04 753.7 1069.46 697.55 1037.04 641.39 1069.46 660.11 1101.88 641.39 1134.3 697.55 1166.72"/>
              </g>
              <g id="t00011f-49" data-name="t00011f">
                <polygon class="cls-6" points="585.24 1231.55 529.09 1263.97 547.81 1296.39 622.68 1296.39 641.39 1263.97 697.55 1296.39 753.7 1263.97 734.98 1231.55 697.55 1231.55 697.55 1166.72 641.39 1134.3 622.68 1166.72 585.24 1166.72 585.24 1231.55"/>
              </g>
            </g>
          </g>
        </g>
        <g id="t00016f">
          <g id="t00014f-5" data-name="t00014f">
            <g id="t00010f-28" data-name="t00010f">
              <g id="t00011f-50" data-name="t00011f">
                <polyline class="cls-6" points="1783.16 64.45 1764.44 96.87 1708.29 64.45 1652.14 96.87 1670.86 129.29 1708.29 129.29 1708.29 194.13 1764.44 226.55 1783.16 194.13 1820.6 194.13 1820.6 129.29"/>
              </g>
            </g>
            <g id="t00003f-28" data-name="t00003f">
              <g id="t00004f-72" data-name="t00004f">
                <polyline class="cls-4" points="1783.16 194.13 1764.44 226.55 1708.29 194.13 1652.14 226.55 1670.86 258.97 1708.29 258.97 1708.29 323.8 1764.44 356.22 1783.16 323.8 1820.6 323.8 1820.6 258.97"/>
              </g>
              <g id="t00004f-73" data-name="t00004f">
                <polyline class="cls-4" points="1820.6 388.64 1764.44 421.06 1783.16 453.48 1820.6 453.48 1820.6 518.32"/>
              </g>
              <g id="t00005f-25" data-name="t00005f">
                <polyline class="cls-4" points="1820.6 388.64 1764.44 421.06 1745.73 388.64 1783.16 323.8 1820.6 323.8 1820.6 258.97"/>
              </g>
            </g>
            <g id="t00008f-21" data-name="t00008f">
              <g id="t00009f-37" data-name="t00009f">
                <polygon class="cls-3" points="1708.29 453.48 1652.14 421.06 1633.42 453.48 1670.86 518.32 1708.29 518.32 1708.29 583.16 1764.44 615.58 1783.16 583.16 1764.44 550.74 1820.6 518.32 1820.6 453.48 1783.16 453.48 1764.44 421.06 1708.29 453.48"/>
              </g>
              <g id="t00009f-38" data-name="t00009f">
                <polygon class="cls-4" points="1708.29 323.8 1708.29 258.97 1670.86 258.97 1633.42 323.8 1652.14 356.22 1595.99 388.64 1595.99 453.48 1633.42 453.48 1652.14 421.06 1708.29 453.48 1764.44 421.06 1745.73 388.64 1764.44 356.22 1708.29 323.8"/>
              </g>
            </g>
            <g id="t00003f-29" data-name="t00003f">
              <g id="t00004f-74" data-name="t00004f">
                <polygon class="cls-4" points="1483.68 583.16 1483.68 518.32 1446.25 518.32 1408.81 583.16 1427.53 615.58 1371.38 648 1371.38 712.84 1408.81 712.84 1427.53 680.42 1483.68 712.84 1539.83 680.42 1521.12 648 1539.83 615.58 1483.68 583.16"/>
              </g>
              <g id="t00004f-75" data-name="t00004f">
                <polygon class="cls-4" points="1708.29 583.16 1708.29 518.32 1670.86 518.32 1633.42 583.16 1652.14 615.58 1595.99 648 1595.99 712.84 1633.42 712.84 1652.14 680.42 1708.29 712.84 1764.44 680.42 1745.73 648 1764.44 615.58 1708.29 583.16"/>
              </g>
              <g id="t00004f-76" data-name="t00004f">
                <polygon class="cls-4" points="1595.99 518.32 1652.14 550.74 1670.86 518.32 1633.42 453.48 1595.99 453.48 1595.99 388.64 1539.83 356.22 1521.12 388.64 1539.83 421.06 1483.68 453.48 1483.68 518.32 1521.12 518.32 1539.83 550.74 1595.99 518.32"/>
              </g>
              <g id="t00005f-26" data-name="t00005f">
                <polygon class="cls-4" points="1595.99 648 1595.99 712.84 1558.55 712.84 1521.12 648 1539.83 615.58 1483.68 583.16 1483.68 518.32 1521.12 518.32 1539.83 550.74 1595.99 518.32 1652.14 550.74 1633.42 583.16 1652.14 615.58 1595.99 648"/>
              </g>
            </g>
            <g id="t00010f-29" data-name="t00010f">
              <g id="t00011f-51" data-name="t00011f">
                <polygon class="cls-2" points="1371.38 518.32 1371.38 453.48 1333.94 453.48 1296.51 518.32 1315.22 550.74 1259.07 583.16 1259.07 648 1296.51 648 1315.22 615.58 1371.38 648 1427.53 615.58 1408.81 583.16 1427.53 550.74 1371.38 518.32"/>
              </g>
              <g id="t00011f-52" data-name="t00011f">
                <polygon class="cls-6" points="1483.68 453.48 1539.83 421.06 1521.12 388.64 1446.25 388.64 1427.53 421.06 1371.38 388.64 1315.22 421.06 1333.94 453.48 1371.38 453.48 1371.38 518.32 1427.53 550.74 1446.25 518.32 1483.68 518.32 1483.68 453.48"/>
              </g>
            </g>
            <g id="t00010f-30" data-name="t00010f">
              <g id="t00011f-53" data-name="t00011f">
                <polygon class="cls-6" points="1595.99 777.68 1539.83 810.1 1558.55 842.52 1633.42 842.52 1652.14 810.1 1708.29 842.52 1764.44 810.1 1745.73 777.68 1708.29 777.68 1708.29 712.84 1652.14 680.42 1633.42 712.84 1595.99 712.84 1595.99 777.68"/>
              </g>
              <g id="t00011f-54" data-name="t00011f">
                <polygon class="cls-4" points="1483.68 712.84 1427.53 680.42 1408.81 712.84 1446.25 777.68 1483.68 777.68 1483.68 842.52 1539.83 874.94 1558.55 842.52 1539.83 810.1 1595.99 777.68 1595.99 712.84 1558.55 712.84 1539.83 680.42 1483.68 712.84"/>
              </g>
            </g>
          </g>
          <g id="t00002f-6" data-name="t00002f">
            <g id="t00010f-31" data-name="t00010f">
              <g id="t00011f-55" data-name="t00011f">
                <polyline class="cls-3" points="1820.6 648 1820.6 583.16 1783.16 583.16 1745.73 648 1764.44 680.42 1708.29 712.84 1708.29 777.68 1745.73 777.68 1764.44 745.26 1820.6 777.68"/>
              </g>
              <g id="t00011f-56" data-name="t00011f">
                <polyline class="cls-4" points="1820.6 518.32 1764.44 550.74 1783.16 583.16 1820.6 583.16 1820.6 648"/>
              </g>
            </g>
          </g>
        </g>
        <g id="t00017f">
          <g id="t00002f-7" data-name="t00002f">
            <g id="t00003f-30" data-name="t00003f">
              <g id="t00004f-77" data-name="t00004f">
                <polygon class="cls-4" points="1708.29 -65.23 1652.14 -97.65 1633.42 -65.23 1670.86 -.39 1708.29 -.39 1708.29 64.45 1764.44 96.87 1783.16 64.45 1764.44 32.03 1820.6 -.39 1820.6 -65.23 1783.16 -65.23 1764.44 -97.65 1708.29 -65.23"/>
              </g>
            </g>
            <g id="t00008f-22" data-name="t00008f">
              <g id="t00009f-39" data-name="t00009f">
                <polyline class="cls-4" points="1820.6 -65.23 1820.6 -.39 1764.44 32.03 1783.16 64.45"/>
              </g>
            </g>
            <g id="t00010f-32" data-name="t00010f">
              <g id="t00011f-57" data-name="t00011f">
                <polygon class="cls-3" points="1595.99 -.39 1539.83 -32.81 1521.12 -.39 1558.55 64.45 1595.99 64.45 1595.99 129.29 1652.14 161.71 1670.86 129.29 1652.14 96.87 1708.29 64.45 1708.29 -.39 1670.86 -.39 1652.14 -32.81 1595.99 -.39"/>
              </g>
              <g id="t00011f-58" data-name="t00011f">
                <polygon class="cls-4" points="1595.99 -130.07 1595.99 -194.91 1558.55 -194.91 1521.12 -130.07 1539.83 -97.65 1483.68 -65.23 1483.68 -.39 1521.12 -.39 1539.83 -32.81 1595.99 -.39 1652.14 -32.81 1633.42 -65.23 1652.14 -97.65 1595.99 -130.07"/>
              </g>
            </g>
          </g>
        </g>
      </g>
    </g>
  </g>
</svg>