<?xml version="1.0" encoding="UTF-8"?>
<svg id="Camada_2" data-name="Camada 2" xmlns="http://www.w3.org/2000/svg" viewBox="0 0 745.02 539.39">
  <defs>
    <style>
      .cls-1 {
        fill: #fff;
      }

      .cls-2 {
        fill: #171717;
      }
    </style>
  </defs>
  <g id="Camada_1-2" data-name="Camada 1">
    <g>
      <g id="t00006f">
        <g>
          <polygon class="cls-2" points="188.74 216.32 5.26 110.38 66.42 4.44 311.07 4.44 372.23 110.38 555.72 4.44 739.21 110.38 678.05 216.32 555.72 216.32 555.72 428.19 372.23 534.13 311.07 428.19 188.74 428.19 188.74 216.32"/>
          <path d="m370.83,539.39l-61.97-107.34h-123.95v-213.5L0,111.79,64.2.59h249.09l60.35,104.53L555.72,0l188.75,108.97-64.2,111.2h-120.7v210.25l-188.75,108.97Zm-178.23-115.04h120.7l60.35,104.53,178.23-102.9v-213.5h123.95l58.13-100.68L555.72,8.88l-184.9,106.75-61.97-107.34H68.64L10.52,108.97l182.08,105.13v210.25Z"/>
        </g>
      </g>
      <g>
        <polygon class="cls-1" points="739.21 110.38 564.52 61.13 372.23 110.38 372.23 246.36 255.81 297.63 188.74 428.19 311.07 428.19 372.23 534.13 555.72 428.19 555.72 216.32 678.05 216.32 739.21 110.38"/>
        <path d="m370.83,539.39l-61.97-107.34h-126.41l70.56-137.39,115.38-50.8V107.39l196.19-50.24,1,.28,179.45,50.59-64.75,112.15h-120.7v210.25l-188.75,108.97Zm-175.78-115.04h118.24l60.35,104.53,178.23-102.9v-213.5h123.95l57.58-99.73-168.93-47.63-188.39,48.25v135.51l-117.48,51.73-63.56,123.74Z"/>
      </g>
    </g>
  </g>
</svg>