<?xml version="1.0" encoding="UTF-8"?>
<svg id="Camada_2" data-name="Camada 2" xmlns="http://www.w3.org/2000/svg" viewBox="0 0 743.94 539.39">
  <defs>
    <style>
      .cls-1 {
        fill: #fff;
      }

      .cls-2 {
        fill: #f33b27;
      }
    </style>
  </defs>
  <g id="Camada_1-2" data-name="Camada 1">
    <g>
      <g>
        <polygon class="cls-2" points="737.81 110.83 716 123.48 694.92 135.64 568.76 208.45 554.89 216.39 554.89 427.61 432.95 427.61 426.95 437.99 371.97 533.26 189.05 427.61 189.05 216.39 67.18 216.39 6.13 110.83 44.72 88.53 65.8 76.37 157.91 23.18 182.72 8.82 189.05 5.18 358.19 102.88 371.97 110.83 378.86 98.91 432.95 5.18 676.84 5.18 737.81 110.83"/>
        <path d="m373.61,539.39l-189.05-109.19v-209.32h-119.97L0,109.19,189.05,0l181.28,104.7L430.36.69h249.07l64.51,111.77-46.77,27.06-137.79,79.47v213.11h-123.84l-61.92,107.29Zm-180.08-114.37l176.79,102.11,60.03-104.01h120.05v-209.33l16.12-9.24,165.16-95.37-57.44-99.53h-238.72l-61.92,107.29L189.04,10.36,12.26,112.46l57.51,99.45h123.77v213.11Z"/>
      </g>
      <polygon class="cls-1" points="146.4 216.39 118.26 216.39 44.72 88.53 65.8 76.37 146.4 216.39"/>
      <polygon class="cls-1" points="716 123.48 694.92 135.64 619.76 5.18 647.81 5.18 716 123.48"/>
      <polygon class="cls-1" points="470.49 5.18 381.7 150.15 157.91 23.18 182.72 8.82 373.27 117.31 441.95 5.18 470.49 5.18"/>
      <path d="m373.61,539.39l-189.05-109.19v-209.32h-119.97L0,109.19,189.05,0l181.28,104.7L430.36.69h249.07l64.51,111.77-46.77,27.06-137.79,79.47v213.11h-123.84l-61.92,107.29Zm-180.08-114.37l176.79,102.11,60.03-104.01h120.05v-209.33l16.12-9.24,165.16-95.37-57.44-99.53h-238.72l-61.92,107.29L189.04,10.36,12.26,112.46l57.51,99.45h123.77v213.11Z"/>
    </g>
  </g>
</svg>